<svg fill="none" height="32" viewBox="0 0 32 32" width="32" xmlns="http://www.w3.org/2000/svg"><path d="m13.3433 26.7716c-1.5631 0-2.974-.2131-4.23257-.6394-1.2586-.4162-2.25837-1.0607-2.99931-1.9336-.74095-.883-1.11142-2.0097-1.11142-3.3799 0-.9338.13195-1.7306.39585-2.3903.27405-.6699.62422-1.2332 1.05052-1.69.43644-.4669.90334-.8475 1.40069-1.1419.5075-.3045.99469-.5531 1.46159-.746.45675-.1827.83225-.34 1.12665-.472.2943-.1319.5126-.2486.6547-.3501.1522-.1015.2283-.1827.2283-.2436 0-.0812-.0304-.1523-.0913-.2132s-.1472-.1218-.2588-.1827c-.2944-.1522-.6141-.4161-.9592-.7917-.3451-.3755-.64452-.8272-.89827-1.355-.2436-.5379-.3654-1.1216-.3654-1.75085 0-1.0556.28927-1.89297.86782-2.51211.58865-.61915 1.36515-1.06575 2.32945-1.33979.9744-.27405 2.0401-.41108 3.1972-.41108 1.0454 0 2.0148.17763 2.908.53287.9033.3451 1.629.8526 2.1771 1.5225.5583.66989.8374 1.49204.8374 2.46643 0 .66993-.1218 1.24843-.3654 1.73563s-.5735.9084-.9896 1.2637c-.406.3451-.8679.6496-1.3855.9135-.1928.0913-.3349.1877-.4263.2892-.0812.0914-.1218.1827-.1218.2741 0 .1015.1167.3045.3502.609.2436.2943.4973.5836.7612.8678.1726.1929.3502.3806.5329.5633.1928.1827.3755.3299.5481.4416.1725.1116.3248.1674.4567.1674.1624 0 .3147-.1116.4568-.3349s.2994-.4923.472-.8069c.3248-.6192.6851-1.0303 1.0809-1.2333.406-.203.8526-.3045 1.3398-.3045s.8983.1523 1.2332.4568c.3451.2943.5177.6851.5177 1.1723 0 .2741-.0457.5633-.137.8678-.0914.3045-.2335.6243-.4263.9592-.1929.3349-.4416.68-.7461 1.0353-.2233.274-.3704.472-.4415.5938-.0609.1218-.0913.2639-.0913.4263 0 .1522.0659.2892.1979.411.1421.1117.3654.269.6699.472.4263.2335.8272.5126 1.2028.8374.3755.3146.6749.6597.8982 1.0353.2335.3755.3502.7663.3502 1.1723 0 .8729-.2842 1.487-.8526 1.8422-.5582.3654-1.1926.5481-1.9031.5481-.6192 0-1.1013-.0964-1.4464-.2893-.3451-.1827-.6699-.477-.9744-.883-.1928-.2741-.3654-.4821-.5176-.6242-.1421-.1523-.2842-.2284-.4263-.2284-.1218 0-.2487.0507-.3806.1522-.132.0914-.3198.2639-.5634.5177-.2537.274-.5836.5379-.9896.7917-.3958.2639-.8678.4923-1.4159.6851-.5379.1929-1.1571.3451-1.8574.4568-.6902.1116-1.4667.1674-2.3294.1674zm.7307-5.009c.3451 0 .7055-.0456 1.081-.137.3756-.1015.7257-.2284 1.0505-.3806.335-.1523.604-.3299.807-.5329.2131-.203.3197-.406.3197-.609 0-.1116-.0609-.2537-.1827-.4263-.1218-.1725-.2842-.3654-.4872-.5785-.203-.2132-.4212-.4314-.6547-.6547-.203-.203-.406-.3908-.609-.5633-.1928-.1827-.3755-.3299-.5481-.4415-.1624-.1117-.3146-.1675-.4567-.1675-.1726 0-.3959.0507-.6699.1522-.2639.0914-.538.2183-.8222.3807s-.5481.3552-.7917.5785-.4466.4669-.609.7308c-.1522.2537-.2283.5227-.2283.8069 0 .4669.1421.8374.4263 1.1114.2943.2639.6546.4517 1.0809.5634.4365.1116.8679.1674 1.2941.1674zm.7765-9.683c.1929 0 .3857-.066.5786-.1979.1928-.132.3654-.2995.5176-.5025.1523-.2131.2741-.4415.3654-.6851.0914-.2436.137-.477.137-.70033 0-.5075-.1218-.89319-.3654-1.15709-.2334-.2639-.5887-.39585-1.0657-.39585-.2538 0-.5024.05582-.746.16747-.2335.1015-.4263.25883-.5786.47198-.1522.21315-.2283.47704-.2283.79169 0 .22333.0456.46183.137.71553.0913.2538.2081.4974.3501.7308.1523.2233.3096.406.472.5481s.3045.2132.4263.2132z" fill="#121619"/></svg>