<svg enable-background="new 0 0 143.43 188.51" viewBox="0 0 143.43 188.51" xmlns="http://www.w3.org/2000/svg"><g fill="#fff"><path d="m14.7 74.15c-.61-1.48-1.28-2.83-2.25-4.11-.38-.51-.78-1-1.17-1.5.45.57-.04-.05-.1-.15-.09-.13-.17-.25-.24-.39-.16-.31-.14-.26.04.15.04-.02-.36-1.06-.07-.04-.06-.21.15-.84-.02-.19.14-.54.25-.81.45-1.23.65-1.33 1.4-2.62 2.19-3.88 2.65-4.25 6.21-7.7 10.71-10.32.68-.4 1.46-.71 2.11-1.16.95-.65-.57-.03-.28-.02.19 0 .39-.05.58-.06 1.14-.11 2.29-.17 3.43-.2 2.37-.06 4.73-.01 7.1.08 4.5.18 9.01.52 13.49 1.07.13.02.25.03.38.05.88.11-.49-.08.02 0 .31.05.62.09.93.14.17.03.35.09.53.1.05 0 .11.03.16.04-.52-.11-.26-.11.14.1 2.92 1.52 5.64 3.47 8.39 5.26 1.42.92 3.45.29 4.28-1.12.89-1.52.3-3.35-1.12-4.28-2.64-1.72-5.24-3.54-8.01-5.05-1.35-.74-2.47-1.07-3.96-1.27-4.73-.65-9.5-1.03-14.27-1.25-2.59-.12-5.18-.19-7.77-.13-1.16.03-2.32.08-3.48.18-.65.06-1.36.09-1.99.24-.92.22-1.78.75-2.61 1.2-5.49 3-10.09 7.09-13.55 12.29-.9 1.36-1.72 2.78-2.48 4.22-.85 1.6-1.68 3.34-1.61 5.2.06 1.67.8 3.04 1.8 4.33.24.31.49.62.74.94.01.02.3.38.11.14-.18-.24.18.25.21.29.43.63.88 1.29 1.17 2 .64 1.56 2.08 2.67 3.84 2.18 1.48-.41 2.82-2.27 2.18-3.85z"/><path d="m50.74 72c-.65 3.19-1.29 6.48-3.25 9.17.3-.41-.38.45-.35.42-.23.26-.47.51-.71.75-.46.45-.92.84-1.3 1.1-1.22.84-2.34 1.38-3.72 1.74-1.82.49-3.73.36-5.16 1.8-1.31 1.32-1.59 3.27-1.44 5.05.11 1.33.55 2.59.7 3.91-.08-.68-.03.3-.03.36.02-.6-.09.34-.12.43-.16.44-.69 1.07-1.12 1.53-2.1 2.18-5.12 3.94-6.13 6.96-.72 2.13-.01 4.25 1.43 5.89 2.78 3.18 7.55 4.66 11.43 5.93 2.01.66 4.05 1.23 6.06 1.91 3.74 1.27 7.4 2.76 11.19 3.89 3.86 1.15 5.51-4.88 1.66-6.03-5.19-1.55-10.22-3.61-15.4-5.22-1.81-.56-3.61-1.15-5.37-1.85-.25-.1-.5-.2-.75-.31.66.28-.16-.07-.24-.11-.4-.18-.79-.37-1.18-.56-.44-.22-.88-.46-1.3-.72-.13-.08-.27-.16-.4-.25-.15-.1-.96-.72-.27-.16-.28-.23-.54-.51-.82-.74-.21-.17-.31-.54.08.14-.08-.13-.18-.31-.27-.43-.36-.46.23.7.08.16-.13-.47.03.36.03.38-.02-.28.1-.74-.07.21.13-.74-.31.32-.01-.05 1.47-1.8 3.81-3.49 5.42-5.46 1.06-1.3 1.93-2.73 2.2-4.41.26-1.6-.03-3.09-.37-4.65-.07-.31-.15-.62-.19-.94.07.5 0-.23-.01-.35 0-.12.08-.88.03-.92.43.33-.79.99-.84 1.13.04-.12 1.77-.26 2.08-.33.9-.19 1.77-.47 2.62-.81 3.22-1.3 5.95-3.41 7.97-6.25 2.23-3.14 3.13-6.95 3.88-10.66.33-1.65-.48-3.38-2.18-3.84-1.56-.42-3.52.52-3.86 2.19z"/><path d="m84.44 127.32c1.75 1.69 3.99 2.36 6.07 3.52.2.11.39.24.58.35.69.38-.36-.41.15.12.4.41-.03-.03-.06-.12.24.58-.12-.49-.11-.58.06-.17.11-.35.17-.52-.12.23-.25.45-.41.66-.05.06-.16.2-.21.26-.46.59-.95 1.15-1.45 1.7-1.73 1.92-3.5 3.44-5.92 4.07-2.85.74-5.79-.13-8.52-1-3.2-1.02-6.34-2.02-9.67-2.55-3.57-.56-7.17-.84-10.76-1.17-5.93-.55-11.89-1.06-17.76-2.1-3.39-.6-6.77-1.37-10.03-2.49-1.39-.48-2.61-.9-3.84-1.68-1.02-.65-1.91-1.62-2.27-2.63-.55-1.59-2.14-2.65-3.84-2.18-1.55.43-2.74 2.24-2.18 3.84 2.46 7.08 10.62 9.1 17.19 10.52 6.92 1.5 13.99 2.13 21.03 2.81 3.76.36 7.55.57 11.27 1.19 3.61.6 6.98 1.84 10.48 2.87 3.65 1.07 7.62 1.62 11.31.39 3.18-1.06 5.84-3.11 8.05-5.59 1.28-1.43 2.8-2.99 3.39-4.85.6-1.89-.05-3.9-1.43-5.26-1.04-1.04-2.4-1.67-3.71-2.28-.64-.3-1.29-.58-1.91-.92-.25-.14-.5-.3-.75-.44-.3-.21-.31-.21-.03.01-.13-.11-.26-.23-.38-.35-2.92-2.82-7.35 1.59-4.45 4.4z"/><path d="m4.51 71.25c-.96 5.63-4.34 10.56-4.51 16.36-.04 1.5.38 2.91 1.14 4.19.34.58.77 1.1 1.18 1.63.12.15.24.31.36.46-.36-.47.14.2.2.3.13.21.27.42.37.64.17.37 0-.51.07.3.04.43.07.91.04 1.52-.06 1.34-.36 2.66-.67 3.97-1.04 4.52-2.41 9.33-.97 13.93.65 2.09 1.74 4.02 2.87 5.88 1.49 2.46 2.79 4.89 5.65 5.92 2.45.88 5.3.6 7.87.67 3.57.11 7.13-.15 10.69-.43 1.68-.13 3.12-1.34 3.12-3.12 0-1.59-1.43-3.26-3.12-3.12-2.92.23-5.85.45-8.79.45-2.28.01-4.66.05-6.94-.15.49.04-.54-.12-.73-.17-.2-.05-.34-.12-.56-.3-.03-.02-.27-.44-.53-.87-.35-.57-.71-1.14-1.06-1.71-.53-.87-1.05-1.74-1.53-2.64-.18-.35-.35-.7-.53-1.05-.4-.8.12.35-.07-.14-.1-.25-.19-.5-.27-.75-.12-.37-.22-.75-.31-1.13-.04-.17-.06-.34-.1-.51.12.64.02.2.01.04-.06-.98-.05-1.94.04-2.92 0-.05.07-.59.01-.18.03-.24.07-.48.11-.72.1-.59.21-1.18.34-1.76.28-1.34.63-2.66.92-3.99.6-2.68 1.2-5.65.52-8.38-.26-1.05-.77-2.05-1.41-2.91-.21-.29-.44-.58-.66-.86.03.04-.54-.71-.3-.38.21.28-.16-.23-.2-.29-.17-.26-.35-.53-.48-.81-.14-.32-.06-.04-.05 0-.09-.37 0-.86.03-1.22.05-.55.15-1.09.28-1.64.31-1.36.77-2.67 1.25-3.97 1.04-2.79 2.21-5.52 2.71-8.47.28-1.66-.44-3.37-2.18-3.84-1.47-.42-3.53.5-3.81 2.17z"/><path d="m17.35 99.66c.12.87-.01-.2-.02-.37-.02-.32-.04-.64-.05-.96-.01-.56 0-1.12.04-1.68.02-.31.03-.65.09-.95-.18.87.04-.19.08-.36.11-.59.26-1.18.43-1.76.17-.56.32-1.22.6-1.73-.39.7.12-.25.18-.39.13-.26.26-.52.39-.78.3-.56.62-1.11.97-1.64.19-.29.38-.57.58-.85.1-.14.2-.28.31-.42-.22.29-.22.29 0 .02 1.02-1.27 1.33-3.19 0-4.42-1.14-1.04-3.32-1.36-4.42 0-2.07 2.56-3.7 5.37-4.64 8.54-.91 3.09-1.01 6.23-.57 9.4.1.72.84 1.52 1.44 1.87.67.39 1.66.56 2.41.32 1.78-.57 2.42-2.1 2.18-3.84z"/><path d="m38.98 94.83c.01 7.35 2.08 14.99 6.72 20.77 1.03 1.28 3.36 1.15 4.42 0 1.25-1.36 1.1-3.05 0-4.42-.17-.22-.19-.26-.01-.01-.11-.15-.22-.3-.32-.45-.21-.3-.42-.61-.61-.93-.43-.68-.81-1.39-1.17-2.12-.17-.35-.33-.7-.49-1.05-.2-.45.15.41-.02-.06-.07-.18-.14-.36-.21-.55-.3-.78-.56-1.58-.79-2.38-.44-1.51-.76-3.05-1-4.6-.04-.28-.04-.35-.01-.03-.02-.19-.05-.38-.07-.57-.05-.42-.08-.85-.11-1.27-.05-.78-.08-1.56-.08-2.33 0-1.63-1.44-3.2-3.12-3.12-1.7.08-3.13 1.37-3.13 3.12z"/><path d="m94.64 94.99c.12 2.04.24 4.09.36 6.13.05.83.32 1.61.92 2.21.54.54 1.43.95 2.21.92.81-.04 1.65-.3 2.21-.92.54-.59.96-1.38.92-2.21-.12-2.04-.24-4.09-.36-6.13-.05-.83-.32-1.61-.92-2.21-.54-.54-1.43-.95-2.21-.92-.81.04-1.65.3-2.21.92-.55.59-.97 1.38-.92 2.21z"/><path d="m52.89 88.57c6.54 3.63 13.41 8.05 21.09 8.49 2.13.12 4.19-.61 6.2-1.22 2.12-.64 4.24-1.29 6.36-1.93s4.24-1.29 6.36-1.93c.89-.27 1.79-.52 2.53-1.12 1.15-.93 1.55-2.24 1.48-3.67-.22-4.94-.59-9.89-.88-14.83-.1-1.69-1.36-3.12-3.12-3.12-1.61 0-3.23 1.43-3.12 3.12.15 2.59.31 5.19.46 7.78.08 1.3.15 2.59.23 3.89.04.65.08 1.3.12 1.94.02.32.04.65.06.97-.01.69.05.65.19-.12.37-.37.75-.75 1.12-1.12.31-.08.35-.09.13-.02-.2.07-.41.13-.61.19-.47.14-.94.29-1.41.43-.86.26-1.73.52-2.59.79-1.8.55-3.61 1.1-5.41 1.64-2.9.88-6.27 2.44-9.19 1.94-6.1-1.04-11.5-4.56-16.82-7.51-3.54-1.94-6.7 3.46-3.18 5.41z"/><path d="m63.54 115.37c-3.62 2.97-5.95 7.78-5.45 12.51.21 2.03.92 3.8 2.53 5.11 1.74 1.42 3.78 2.66 5.87 3.45 4.16 1.58 7.81-.23 10.3-3.63 1.15-1.57 1.94-3.34 2.98-4.97.1-.16.21-.32.31-.48.05-.07.39-.55.16-.24-.23.3.11-.13.17-.19.11-.12.23-.25.35-.37s.24-.22.36-.33c.32-.3-.43.26-.05.05.14-.08.28-.17.42-.25.11-.06.22-.12.33-.17-.32.13-.37.16-.15.08.15-.04 1.28-.3.68-.21.55-.08 1.12-.07 1.67-.06 1.37.03 2.74.11 4.11.12 2.91.01 5.83-.12 8.72-.47 1.68-.2 3.12-1.29 3.12-3.12 0-1.53-1.44-3.33-3.12-3.12-4.48.55-8.88.3-13.37.35-3.74.04-6.61 1.64-8.73 4.68-.97 1.39-1.67 2.94-2.57 4.37-.2.32-.41.63-.63.95-.35.52-.15.19-.06.09-.12.15-.25.29-.38.43-.1.11-.72.7-.46.48.27-.23-.03.03-.09.06-.22.12-.41.25-.64.36.74-.35-.44.06.01-.03.37-.07-.41-.01-.6-.01.66.02-.37-.1-.58-.16-.51-.16-.5-.17-.85-.35-.85-.44-1.65-.96-2.45-1.48-.29-.18-.57-.37-.85-.57.5.36-.12-.15-.28-.3.41.4.21.29.09.09-.35-.59.09.39-.01-.02-.04-.17-.09-.35-.13-.52-.09-.45-.02.7-.01-.28.01-1.12.03-1.75.35-2.81.56-1.85 1.76-3.32 3.33-4.61 1.31-1.07 1.11-3.31 0-4.42-1.28-1.31-3.09-1.09-4.4-.01z"/><path d="m112.63 55.75c5.65 1.02 10.22 4.03 13.92 8.47 1.62 1.95 3.3 4.62 4.3 7.17 1.18 3.01 1.08 6.34 1.38 9.52.17 1.78.35 3.65.92 5.36.42 1.27 1.05 2.47 1.69 3.64.65 1.18 1.3 2.36 1.9 3.57.28.57.11.25.06.12.11.27.21.55.29.83.02.09.05.18.07.27.07.37.08.35.03-.07.02.16.02.31.02.47.26-.78.26-.91-.01-.38-.57.61-.96 1.61-1.36 2.34-.43.78-.84 1.57-1.24 2.37-.75 1.48-1.36 3.05-2.2 4.49-.65 1.13-1.61 1.71-2.82 2.4-1.74.99-3.55 1.85-5.38 2.68-3.82 1.73-7.62 3.53-11.46 5.22-3.79 1.67-7.65 3.19-11.47 4.79-1.55.65-2.67 2.07-2.18 3.84.4 1.47 2.28 2.84 3.84 2.18 3.88-1.63 7.8-3.19 11.66-4.86 3.72-1.61 7.36-3.4 11.07-5.04 1.83-.81 3.65-1.62 5.43-2.54 1.77-.92 3.74-1.89 5.11-3.37 1.26-1.36 2.02-2.97 2.8-4.63.8-1.68 1.64-3.35 2.56-4.97.93-1.63 2.06-3.14 1.87-5.12-.16-1.65-.77-3.13-1.5-4.61-.64-1.31-1.39-2.56-2.07-3.84-.14-.27-.28-.55-.42-.82-.04-.08-.29-.63-.14-.27.14.32-.03-.07-.04-.11-.23-.79-.44-1.56-.58-2.37-.65-3.74-.34-7.58-1.34-11.27-.88-3.26-2.65-6.45-4.63-9.17-4.46-6.11-10.84-10.94-18.41-12.31-1.66-.3-3.37.45-3.84 2.18-.43 1.51.5 3.54 2.17 3.84z"/><path d="m118.08 92.25c-4.6 1.52-8.59 4.13-12.49 6.94-3.39 2.43-6.47 5.3-9.96 7.59-1.72 1.13-3.17 1.9-5.04 2.36-2.33.57-4.71.82-7.09 1-5.15.37-10.34.48-15.37 1.77-3.89 1-2.24 7.03 1.66 6.03 9.32-2.39 19.82-.05 28.33-5.33 7.43-4.61 13.07-11.49 21.62-14.32 1.6-.53 2.65-2.16 2.18-3.84-.42-1.58-2.23-2.73-3.84-2.2z"/><path d="m103.24 92.04c5.17-2.08 11.38-2.16 14.76-7.28 1.53-2.32 2.21-5.18 2.66-7.89.53-3.22.91-6.46 1.36-9.69.23-1.67-.4-3.36-2.18-3.84-1.46-.4-3.61.5-3.84 2.18-.42 3.03-.8 6.06-1.26 9.08-.18 1.17-.39 2.33-.69 3.47-.17.64-.37 1.26-.58 1.89-.09.28-.2.52-.54 1.12-.39.69-.96 1.28-1.53 1.62-1.23.74-1.54.83-2.86 1.24-2.31.73-4.71 1.15-6.96 2.06-1.56.63-2.67 2.08-2.18 3.84.41 1.51 2.27 2.84 3.84 2.2z"/><path d="m44.94 136.81c.76 4.44 2.65 8.71 5.21 12.41 2.38 3.45 5.48 6.18 9.67 7.12 1.59.36 3.46-.48 3.84-2.18.36-1.59-.48-3.46-2.18-3.84-.47-.11-.94-.23-1.4-.39-.17-.06-.35-.12-.52-.19.58.24.01-.01-.11-.07-.38-.19-.75-.41-1.11-.65-.17-.11-.34-.24-.51-.36.2.14.32.27.06.04-.58-.51-1.13-1.05-1.63-1.65-.08-.1-.23-.23-.28-.34.25.57.17.24.03.03-.28-.4-.57-.8-.84-1.21-.56-.85-1.08-1.72-1.57-2.61-.22-.41-.43-.83-.64-1.25-.11-.23-.22-.47-.33-.7-.04-.09-.08-.19-.12-.28.1.23.1.24.02.04-.69-1.82-1.25-3.65-1.58-5.57-.28-1.62-2.35-2.67-3.84-2.18-1.73.55-2.46 2.1-2.17 3.83z"/><path d="m83.54 142.36c1.4 3.64 2.81 7.28 4.21 10.91.3.78.69 1.43 1.44 1.87.67.39 1.66.56 2.41.32 1.48-.48 2.81-2.21 2.18-3.84-1.4-3.64-2.81-7.28-4.21-10.91-.3-.78-.69-1.43-1.44-1.87-.67-.39-1.66-.56-2.41-.32-1.48.47-2.81 2.2-2.18 3.84z"/><path d="m100.1 163.7c-.07.55.01.1.08-.16.04-.15.1-.3.14-.46 0 .02-.25.52-.1.21.1-.2.2-.4.32-.59.08-.13.16-.24.24-.37.22-.34-.37.4-.08.12.34-.33.68-.66 1.02-.99.41-.39-.41.26.07-.05.25-.16.49-.34.74-.51 1.8-1.18 3.8-2.18 5.3-3.78 1.84-1.97 2.71-4.56 2.4-7.24-.5-4.35-1.5-8.7-2.26-13.01-.21-1.2-.43-2.39-.64-3.59-.15-.84-.42-1.97-.32-2.64.08-.54.4-1.12.84-1.84.58-.94 1.23-1.84 1.82-2.78.9-1.43.3-3.44-1.12-4.28-1.5-.88-3.37-.31-4.28 1.12-1.06 1.69-2.27 3.26-2.98 5.14-.79 2.07-.49 4.09-.12 6.21.79 4.47 1.59 8.94 2.38 13.41.09.48.17.96.26 1.44.06.32.11.64.17.96.1.52.03.12.02.01.03.28.05.56.05.83 0 .31-.16 1.09.01.41-.06.25-.14.51-.2.77-.07.33.1-.22.12-.24-.07.13-.12.26-.19.38-.11.18-.23.35-.34.53.35-.56.07-.1-.19.16-.15.15-.31.29-.46.43-.11.1-.22.18-.33.27.01-.01.49-.36.2-.16-.46.31-.91.62-1.38.92-.86.54-1.74 1.04-2.56 1.63-2.77 1.97-4.43 4.34-4.88 7.75-.22 1.68 1.59 3.12 3.12 3.12 1.88 0 2.91-1.45 3.13-3.13z"/><path d="m53.86 151.84c-.93 4.83-.25 9.54 1.8 14 .95 2.06 2.24 3.89 3.61 5.68 1.28 1.67 2.72 3.44 3.2 5.29.43 1.63 2.23 2.63 3.84 2.18 1.65-.45 2.62-2.21 2.18-3.84-1.13-4.27-4.63-7.23-6.71-11-1.84-3.34-2.58-7.15-1.91-10.64.32-1.66-.46-3.37-2.18-3.84-1.51-.43-3.51.51-3.83 2.17z"/><path d="m85.88 154.53c-1.26 4.5-2.09 9.12-2.53 13.78-.22 2.33-.33 4.67-.29 7.02.04 2.06.03 4.45.64 6.43 1.12 3.64 4.57 5.34 8.09 5.9 1.84.3 3.7.44 5.56.58 1.79.14 3.63.56 5.38-.04 3.5-1.2 3.79-5.42 1.11-7.65-2.26-1.88-5.44-2.93-8.24-3.69-3.89-1.05-5.55 4.98-1.66 6.03 1.78.48 3.49 1.09 5.11 1.96.16.08.69.36.66.35.04.04.08.08.13.12.46.53.64.04.54-1.46-.24.9-.03-1.87.63-1.6-.23-.1-.74 0-1-.02-.34-.03-.68-.08-1.03-.12-1.26-.13-2.52-.21-3.78-.32-.36-.03-.72-.07-1.08-.1-.15-.02-.3-.03-.46-.05.06.01.45.07.08.01-.63-.09-1.25-.21-1.86-.36-.27-.07-.53-.14-.8-.23-.24-.08-.71-.33-.23-.07-.22-.11-.44-.26-.66-.36-.43-.2.25.28-.22-.18-.52-.51.07.25-.17-.21-.26-.49.04.41-.08-.16-.02-.11-.18-.75-.11-.35-.08-.45-.1-.92-.14-1.37-.31-3.56-.18-7.16.19-10.71.41-3.88 1.19-7.72 2.25-11.47 1.08-3.88-4.95-5.54-6.03-1.66z"/><path d="m99.04 155.16c-.39 4.73-1.55 9.45-3.41 13.83s-6.39 9.4-3.22 14.21c.93 1.41 2.76 2.01 4.28 1.12 1.4-.82 2.05-2.86 1.12-4.28-.41-.62-.36-.73-.04-1.49.44-1.06 1.13-2.05 1.66-3.07 1.1-2.1 2.06-4.28 2.88-6.51 1.65-4.44 2.59-9.1 2.98-13.82.14-1.68-1.54-3.12-3.12-3.12-1.81-0-2.99 1.44-3.13 3.13z"/><path d="m73.63 144.94c.19 3.94-.76 7.65-1.53 11.49-.85 4.22-1.33 8.49-.35 12.73.45 1.95 1.24 3.81 1.64 5.78.25 1.28.16 2.68-.51 4.12-.12.26-.75.98-.7 1.23.07.35-.21 0-.01-.01.01 0 .56-.3.55-.27 0 0-3.14-.3-3.42-.31-1.11-.05-2.23-.02-3.34.09-.67.07-1.34.2-2.01.26.18-.02.12-.11-.33.03-.13 0-.26.01-.39.01.03.01.07.01.1.02.2.36.4.72.6 1.09.69.54.79 1.09.31 1.64.01.11.11-.09.29-.14.33-.08.77-.3 1.13-.45 1.24-.5 2.32-1.08 3.35-1.95 1.89-1.59 2.94-3.89 3.07-6.34.09-1.69-1.5-3.12-3.12-3.12-1.76 0-3.04 1.43-3.12 3.12-.02.37-.21.86-.46 1.16-.6.74-1.23 1.03-2.12 1.39-2.67 1.06-5.58 2.99-4.79 6.36.79 3.38 4.18 3.58 6.98 3.24 1.21-.15 2.42-.2 3.63-.17 1.29.04 2.59.36 3.87.31 5.71-.24 7.33-7.92 6.58-12.43-.38-2.31-1.35-4.47-1.83-6.76-.42-2-.32-4.23-.06-6.17.73-5.35 2.53-10.5 2.26-15.97-.08-1.69-1.38-3.12-3.12-3.12-1.66.01-3.24 1.44-3.15 3.14z"/><path d="m112.32 101.97c1.13-2.55 1.88-5.22 2.16-8 .1-.96.1-1.93.17-2.89.02-.27.06-.53.08-.8-.01.09-.12.74-.04.32.02-.11.04-.22.06-.33.05-.23.15-.46.19-.69.05-.29-.31.55-.14.33.07-.09.12-.22.17-.32.84-1.41.36-3.49-1.12-4.28-1.51-.8-3.38-.38-4.28 1.12-1.23 2.07-1.15 4.56-1.3 6.87-.01.22-.04.44-.05.66-.03.45.06-.33.06-.37.02.07-.03.22-.05.29-.11.62-.24 1.23-.38 1.84-.14.59-.29 1.18-.47 1.76-.1.31-.2.62-.31.93-.05.14-.11.28-.16.41-.15.41.31-.71 0-.01-.35.79-.56 1.54-.32 2.41.2.72.76 1.51 1.44 1.87 1.37.72 3.58.47 4.29-1.12z"/><path d="m51.71 103.23c2.5.41 5 .82 7.5 1.23.36.06.71.12 1.07.17.85.14 1.63.14 2.41-.32.65-.38 1.27-1.12 1.44-1.87.18-.8.14-1.7-.32-2.41-.41-.64-1.08-1.31-1.87-1.44-2.5-.41-5-.82-7.5-1.23-.36-.06-.71-.12-1.07-.17-.85-.14-1.63-.14-2.41.32-.65.38-1.27 1.12-1.44 1.87-.18.8-.14 1.7.32 2.41.42.64 1.09 1.31 1.87 1.44z"/><path d="m54.43 111.4c3.05-.14 6.09-.27 9.14-.41.44-.02.88-.04 1.32-.06 1.63-.07 3.2-1.38 3.12-3.12-.07-1.63-1.38-3.2-3.12-3.12-3.05.14-6.09.27-9.14.41-.44.02-.88.04-1.32.06-1.63.07-3.2 1.38-3.12 3.12.07 1.63 1.37 3.2 3.12 3.12z"/><path d="m82.35 40.66c.85-.36-.06.01-.23.08-.2.07-.4.14-.6.21-.47.16-.95.3-1.43.43-.42.11-.84.21-1.26.29-.28.06-.57.11-.85.16-.22.04-.88.04-.03.01-.94.03-1.88.18-2.83.18-.51 0-1.02-.01-1.53-.04-.22-.01-.44-.03-.65-.05-.19-.02-1.2-.14-.25-.01-.87-.12-1.61-.15-2.41.32-.65.38-1.27 1.12-1.44 1.87-.18.8-.14 1.7.32 2.41.41.63 1.09 1.33 1.87 1.44 2.4.32 4.73.43 7.14.12 2.58-.33 4.95-.99 7.34-2 .67-.28 1.25-1.2 1.44-1.87.21-.75.11-1.74-.32-2.41s-1.07-1.25-1.87-1.44c-.88-.21-1.6-.05-2.41.3z"/><path d="m77.68 33.29c-.61.18-1.21.36-1.83.5-.23.05-.47.1-.7.14-.16.03-.31.05-.47.08.44-.06.48-.07.12-.03-.41.01-1.27.2-1.66 0 .44.07.48.07.13.01-.16-.03-.31-.07-.46-.1-.27-.07-.53-.15-.79-.24-1.05-.35-2.06-.77-3.16-.94-1.71-.27-3.25-.13-4.84.62-1.48.71-1.98 2.94-1.12 4.28.98 1.52 2.69 1.88 4.28 1.12-1.09.52.24-.09.21.01-.49.06-.56.08-.21.06h.21c.14 0 .28.01.43.03-.48-.07-.54-.08-.2-.02.2.05.41.09.62.15 1.1.31 2.14.8 3.26 1.04 2.65.56 5.3.11 7.85-.67 1.56-.48 2.71-2.21 2.18-3.84-.52-1.6-2.17-2.71-3.85-2.2z"/><path d="m64.51 39.14c4.02 0 4.03-6.25 0-6.25-4.02 0-4.02 6.25 0 6.25z"/><path d="m69.01 36.35c.89-.46 1.82-.89 2.69-1.39.75-.43 1.44-1.05 1.89-1.8.36-.6.52-1.25.53-1.94.02-.82-.31-1.56-.79-2.19-1.14-1.48-3.04-1.67-4.78-1.76-1.28-.07-2.56.08-3.81.31-.93.17-1.67.98-2.03 1.81-.38.9-.36 1.93.16 2.78.69 1.14 1.44 2.24 2.25 3.3.2.36.46.66.8.88.3.28.66.46 1.06.56.75.21 1.74.11 2.41-.32s1.25-1.07 1.44-1.87c.17-.76.18-1.76-.32-2.41-.81-1.06-1.56-2.16-2.25-3.3-.62 1.53-1.25 3.06-1.87 4.59.23-.04.46-.08.7-.11-.28.04-.55.07-.83.11 1.11-.14 2.23-.14 3.35.01-.28-.04-.55-.07-.83-.11.32.05.65.09.96.21-.25-.11-.5-.21-.75-.32.07.03.13.07.2.12-.21-.16-.42-.33-.63-.49.04.03.07.06.11.1-.16-.21-.33-.42-.49-.63.03.04.05.08.07.12-.11-.25-.21-.5-.32-.75.02.04.03.08.04.12-.04-.28-.07-.55-.11-.83.01.06.01.12 0 .18.04-.28.07-.55.11-.83-.01.04-.02.08-.04.12.11-.25.21-.5.32-.75-.04.09-.09.16-.14.24.16-.21.33-.42.49-.63-.1.12-.22.23-.34.33.21-.16.42-.33.63-.49-.44.33-.96.55-1.44.8-.53.27-1.06.55-1.59.82-.68.35-1.24 1.15-1.44 1.87-.21.75-.11 1.74.32 2.41s1.07 1.25 1.87 1.44c.83.2 1.62.09 2.4-.31z"/><path d="m67.33 26.34c.23.06.47.08.71.12.23.03.47.07.7.08.11 0 .21 0 .32-.01.37-.04.75-.08 1.11-.16.1-.02.19-.05.29-.08.34-.12.68-.26 1-.42.09-.04.17-.09.25-.15.25-.17.49-.37.73-.56.04-.03.08-.07.12-.1.3-.28.52-.62.65-1.01.2-.37.29-.77.27-1.2.02-.43-.07-.83-.27-1.2-.13-.39-.34-.72-.65-1.01-.21-.16-.42-.33-.63-.49-.49-.28-1.01-.42-1.58-.43-.28.04-.55.07-.83.11-.53.15-.99.42-1.38.8-.05.04-.09.08-.14.12.21-.16.42-.33.63-.49-.14.1-.28.19-.44.25.25-.11.5-.21.75-.32-.2.09-.42.14-.64.17.28-.04.55-.07.83-.11-.22.03-.45.03-.67 0 .28.04.55.07.83.11-.1-.01-.2-.03-.3-.06-.42-.13-.83-.15-1.25-.06-.42.02-.8.14-1.16.37-.36.2-.66.46-.88.8-.28.3-.46.66-.56 1.06-.04.28-.07.55-.11.83 0 .56.14 1.09.43 1.58.16.21.33.42.49.63.39.41.85.68 1.38.83z"/><path d="m68.44 25.28c4.02 0 4.03-6.25 0-6.25-4.02 0-4.03 6.25 0 6.25z"/><path d="m83.47 28.5c.18.02.36.02.54.01.31-.03.63-.08.94-.12.05-.01.09-.01.14-.02.09-.02.18-.04.27-.07.08-.03.16-.06.24-.09.32-.13.66-.25.96-.42.07-.04.14-.08.21-.13.24-.17.48-.36.71-.55.04-.03.07-.06.11-.09.16-.21.33-.42.49-.63.23-.36.35-.75.37-1.16.07-.28.07-.55 0-.83-.02-.42-.14-.8-.37-1.16-.27-.36-.54-.76-.89-1.07-.27-.24-.56-.45-.85-.66-.09-.07-.19-.13-.29-.18-.36-.23-.75-.35-1.16-.37-.42-.09-.83-.07-1.25.06-.41.1-.76.28-1.06.56-.34.22-.61.51-.8.88-.11.25-.21.5-.32.75-.15.55-.15 1.11 0 1.66.11.25.21.5.32.75.28.47.65.84 1.12 1.12.12.07.24.15.35.23-.21-.16-.42-.33-.63-.49.18.14.35.3.49.48-.16-.21-.33-.42-.49-.63.02.02.04.05.06.07.16-1.26.33-2.52.49-3.79-.04.04-.08.08-.13.11.21-.16.42-.33.63-.49-.15.11-.31.21-.48.28.25-.11.5-.21.75-.32-.21.09-.42.15-.65.18.28-.04.55-.07.83-.11-.22.03-.43.03-.65 0-.43-.02-.83.07-1.2.27-.39.13-.72.34-1.01.65-.3.28-.52.62-.65 1.01-.2.37-.29.77-.27 1.2.04.28.07.55.11.83.15.53.42.99.8 1.38.21.16.42.33.63.49.5.27 1.03.41 1.59.41z"/><path d="m81.86 21.04c-.33.02-.66.06-.98.13-.02.01-.05.01-.07.02-.27.09-.66.27-.82.34-.05.02-.09.04-.13.07-.13.08-.27.2-.38.29-.11.08-.26.19-.38.3-.02.02-.04.04-.05.06-.19.22-.36.44-.52.67-.17.24-.34.75-.38.86-.07.17-.07.37-.09.54-.01.07-.06.32-.06.47 0 .3.06.6.12.89 0 .02.01.04.02.06.09.27.2.54.33.79.13.27.35.49.54.71.18.21.67.54.7.56s.06.04.1.06c.27.13.55.26.84.35l.12.03c.31.05.62.11.94.12h.12c.75-.08 1.13-.11 1.79-.49.26-.15.51-.34.72-.55.2-.2.37-.44.52-.67.01-.02.02-.03.03-.05.23-.36.35-.75.37-1.16.09-.42.07-.83-.06-1.25-.1-.41-.28-.76-.56-1.06-.22-.34-.51-.61-.88-.8-.25-.11-.5-.21-.75-.32-.55-.15-1.11-.15-1.66 0-.25.11-.5.21-.75.32-.47.28-.84.65-1.12 1.12-.01.02-.02.04-.04.07.16-.21.33-.42.49-.63-.02.02-.04.04-.06.06.21-.16.42-.33.63-.49-.03.02-.07.04-.1.06.25-.11.5-.21.75-.32-.05.02-.1.03-.15.04.28-.04.55-.07.83-.11-.07.01-.14.01-.21 0 .28.04.55.07.83.11-.07-.01-.14-.03-.2-.05.25.11.5.21.75.32-.05-.02-.09-.05-.14-.08.21.16.42.33.63.49-.03-.02-.06-.05-.08-.08.16.21.33.42.49.63-.02-.02-.03-.05-.04-.08.11.25.21.5.32.75-.01-.04-.02-.07-.03-.11.04.28.07.55.11.83 0-.04 0-.07 0-.11-.04.28-.07.55-.11.83.01-.04.02-.08.03-.12-.11.25-.21.5-.32.75.02-.04.04-.09.07-.12-.16.21-.33.42-.49.63.04-.05.09-.1.14-.14-.21.16-.42.33-.63.49.06-.04.12-.08.19-.11-.25.11-.5.21-.75.32.08-.03.15-.05.23-.07-.28.04-.55.07-.83.11.02 0 .04 0 .06-.01.43.02.83-.07 1.2-.27.39-.13.72-.34 1.01-.65.3-.28.52-.62.65-1.01.2-.37.29-.77.27-1.2-.04-.28-.07-.55-.11-.83-.15-.53-.42-.99-.8-1.38-.21-.16-.42-.33-.63-.49-.49-.3-1.01-.44-1.58-.44z"/><path d="m102.59 21.07c1.57-2.5 2.03-5.58 1.68-8.48-.19-1.56-.53-3.07-1.01-4.57-.42-1.31-.84-2.73-1.53-3.92-.9-1.54-2.43-2.71-4.27-2.73-1.86-.02-3.27 1.08-4.59 2.25-2.13 1.88-3.96 4.12-5.48 6.51-.88 1.38-.33 3.51 1.12 4.28 1.55.82 3.34.35 4.28-1.12.28-.44.56-.86.86-1.29.15-.21.3-.42.46-.62-.43.58.14-.17.23-.28.66-.8 1.36-1.55 2.1-2.27.4-.39.83-.75 1.24-1.13.07-.06.13-.11.2-.17-.34.25-.37.27-.09.07.61-.2-.61.08.06-.06-.44.09-.87.1-1.28-.14-.11-.09-.23-.18-.34-.27.22.23.19.16-.11-.21-.02.05.28.45.31.51s.06.12.09.18c.14.31.11.24-.08-.2.05.48.37 1.02.53 1.48.18.52.35 1.05.51 1.58s.3 1.06.41 1.6c.06.27.1.54.16.81.15.73-.01-.43.04.26.03.49.07.98.06 1.47 0 .25-.03.49-.04.74-.02.72.13-.51-.01.14-.11.52-.27 1.02-.4 1.53-.08.22-.05.15.09-.18-.05.11-.1.22-.16.33-.13.26-.27.5-.42.74-.87 1.39-.34 3.5 1.12 4.28 1.52.81 3.33.36 4.26-1.12z"/><path d="m86.41 8.39c-4.02-.63-8.07-.98-12.14-.94-1.63.01-3.2 1.43-3.12 3.13.08 1.68 1.37 3.14 3.12 3.12 1.86-.02 3.71.04 5.56.17.89.06 1.78.15 2.66.24.44.05.89.08 1.33.16-.89-.17-.03 0 .16.03.26.04.51.08.77.12.86.13 1.63.14 2.41-.32.65-.38 1.27-1.12 1.44-1.87.34-1.49-.46-3.57-2.19-3.84z"/><path d="m75.93 8.75c-1.58-2.86-3.58-5.52-5.88-7.84-.55-.56-1.41-.91-2.2-.91-.77 0-1.68.34-2.21.92-1.15 1.25-1.23 3.18 0 4.42.92.93 1.79 1.92 2.6 2.96-.16-.21-.33-.42-.49-.63 1.04 1.34 1.97 2.76 2.79 4.25.37.68 1.13 1.23 1.87 1.44.75.21 1.74.11 2.41-.32 1.44-.95 1.96-2.76 1.11-4.29z"/><path d="m97.29 18.91c1.02-1.03 1.74-2.29 2.18-3.66.21-.68.31-1.41.36-2.11.06-.74-.05-1.48-.18-2.21-.15-.53-.42-.99-.8-1.38-.28-.3-.62-.52-1.01-.65-.37-.2-.77-.29-1.2-.27-.56 0-1.09.14-1.58.43-.6.43-1.16.86-1.61 1.44-.29.37-.59.73-.83 1.14-.24.42-.42.89-.6 1.33-.27.68-.37 1.39-.44 2.12-.08.73.03 1.47.16 2.19.1.41.28.76.56 1.06.22.34.51.61.88.8.67.39 1.66.56 2.41.32.76-.24 1.49-.71 1.87-1.44.11-.25.21-.5.32-.75.15-.55.15-1.11 0-1.66-.02-.09-.03-.19-.05-.29.04.28.07.55.11.83-.05-.38-.04-.77 0-1.15-.04.28-.07.55-.11.83.06-.43.17-.85.34-1.25-.11.25-.21.5-.32.75.16-.38.37-.73.61-1.06-.16.21-.33.42-.49.63.24-.31.5-.58.81-.82-.21.16-.42.33-.63.49.06-.04.12-.09.17-.13-1.53-.62-3.06-1.25-4.59-1.87.01.08.02.15.04.23-.04-.28-.07-.55-.11-.83.06.49.06.97 0 1.46.04-.28.07-.55.11-.83-.07.51-.21 1-.4 1.48.11-.25.21-.5.32-.75-.19.45-.44.87-.73 1.26.16-.21.33-.42.49-.63-.14.18-.29.36-.46.52-.57.57-.92 1.4-.92 2.21 0 .77.34 1.68.92 2.21.6.55 1.38.95 2.21.92.81-.03 1.6-.31 2.19-.91z"/><path d="m65.6 22.44c0-.85.58-2.67.93-3.43.72-1.55 1.53-3.07 2.09-4.69.57-1.64.79-3.37 1-5.08.1-.8.18-1.6.26-2.4.04-.42.09-.84.13-1.26.02-.21.05-.41.07-.62-.04.32-.04.3.01-.08.24-1.61-.4-3.44-2.18-3.84-1.49-.34-3.59.45-3.84 2.18-.54 3.65-.36 6.44-1.58 9.72-.05.14-.11.28-.16.42.12-.29.11-.26-.04.07-.17.36-.34.72-.51 1.08-.35.72-.7 1.44-1.02 2.17-.79 1.84-1.42 3.74-1.42 5.76 0 1.63 1.44 3.2 3.12 3.12 1.71-.07 3.14-1.37 3.14-3.12z"/><path d="m58.59 49.17c.03-.29.06-.59.1-.88.02-.19.09-1.2.03-.26.04-.57.17-1.16.27-1.72.19-1.09.44-2.17.75-3.23.15-.51.32-1.01.51-1.51.05-.13.1-.26.15-.4.13-.32.11-.26-.07.16.01-.22.26-.58.36-.77.52-1.05 1.14-2.04 1.85-2.98.46-.6.51-1.72.32-2.41-.2-.72-.76-1.51-1.44-1.87-.73-.38-1.6-.58-2.41-.32-.83.27-1.35.75-1.87 1.44-3.24 4.27-4.25 9.53-4.8 14.74-.17 1.63 1.56 3.2 3.12 3.12 1.85-.06 2.94-1.36 3.13-3.11z"/><path d="m111.3 51.57c.52-2.84.32-5.71-.65-8.45-.84-2.37-2.2-4.3-3.53-6.4-.52-.82-1-1.64-1.21-2.37-.23-.8-.23-2.15-.19-3.33.09-2.9.22-5.8-.86-8.56-.62-1.57-2.09-2.66-3.84-2.18-1.5.41-2.8 2.26-2.18 3.84.92 2.34.7 4.65.63 7.12-.07 2.62.26 5 1.5 7.34 1.94 3.65 5.13 6.81 4.3 11.31-.3 1.66.46 3.37 2.18 3.84 1.53.44 3.55-.49 3.85-2.16z"/><path d="m103.82 54.42c-1.8.94-3.6 1.88-5.4 2.81-.26.13-.51.27-.77.4-.68.35-1.24 1.15-1.44 1.87-.21.75-.11 1.74.32 2.41s1.07 1.25 1.87 1.44c.84.19 1.64.09 2.41-.32 1.8-.94 3.6-1.88 5.4-2.81.26-.13.51-.27.77-.4.68-.35 1.24-1.15 1.44-1.87.21-.75.11-1.74-.32-2.41s-1.07-1.25-1.87-1.44c-.84-.19-1.63-.08-2.41.32z"/><path d="m85.2 60.11c-3.04-3.36-6.99-5.82-11.29-7.21-1.56-.51-3.48.59-3.84 2.18-.39 1.71.52 3.3 2.18 3.84.62.2 1.24.43 1.84.68-.25-.11-.5-.21-.75-.32 1.81.77 3.51 1.76 5.07 2.96-.21-.16-.42-.33-.63-.49 1.08.84 2.08 1.76 3 2.77 1.1 1.21 3.32 1.2 4.42 0 1.19-1.29 1.17-3.11 0-4.41z"/></g></svg>