<svg enable-background="new 0 0 142.18 187.26" viewBox="0 0 142.18 187.26" xmlns="http://www.w3.org/2000/svg"><path d="m13.47 73.68c-.58-1.43-1.25-2.73-2.19-3.96-.35-.46-.72-.91-1.08-1.37.23.3-.78-1.2-.47-.67-.05-.08-.17-.76-.09-.21-.01-.04.07-.75 0-.36.09-.49.29-.94.51-1.38.67-1.32 1.4-2.62 2.19-3.88 2.75-4.41 6.44-7.92 10.93-10.54.68-.4 1.47-.71 2.11-1.16.12-.06.25-.13.37-.19-.48.09-.6.12-.33.08.18.02.4-.05.58-.06 1.14-.11 2.29-.17 3.43-.2 2.37-.06 4.73-.01 7.1.08 4.5.18 9.01.52 13.49 1.07.13.02.25.03.38.05.74.09-.22-.04.19.02.31.05.62.09.93.14.18.03.35.06.53.1.05.01.11.03.16.04-.38-.11.06.04.28.16 2.92 1.52 5.64 3.47 8.39 5.26 2.71 1.76 5.21-2.57 2.52-4.32-2.64-1.72-5.24-3.54-8-5.05-1.3-.71-2.37-1.01-3.81-1.21-4.67-.64-9.39-1.01-14.1-1.23-2.59-.12-5.18-.19-7.77-.13-1.16.03-2.32.08-3.48.18-.6.06-1.24.09-1.82.22-.86.2-1.69.72-2.46 1.14-5.38 2.93-9.92 6.93-13.31 12.05-.9 1.36-1.72 2.78-2.48 4.22-.79 1.5-1.6 3.14-1.52 4.88.13 3.15 2.9 4.85 4 7.53.51 1.25 1.66 2.13 3.08 1.75 1.18-.3 2.26-1.79 1.74-3.05z"/><path d="m50.72 71.53c-.65 3.22-1.3 6.62-3.31 9.31-1.57 2.11-3.91 3.62-6.45 4.3-1.69.45-3.56.3-4.89 1.64-1.19 1.2-1.39 3-1.26 4.61.11 1.27.55 2.48.68 3.74.02.18-.01.73-.15 1.13-.26.7-.78 1.27-1.28 1.8-2.02 2.1-4.97 3.8-5.97 6.68-.66 1.91-.02 3.81 1.26 5.28 2.7 3.1 7.39 4.53 11.16 5.77 2.01.66 4.05 1.23 6.06 1.91 3.74 1.27 7.4 2.76 11.19 3.89 3.09.92 4.41-3.9 1.33-4.82-5.19-1.55-10.22-3.61-15.4-5.22-1.81-.56-3.61-1.15-5.37-1.85-.78-.31-1.41-.58-2.32-1.05-.44-.22-.88-.46-1.3-.72-.13-.08-.27-.16-.4-.25-.08-.05-.84-.6-.4-.25-.29-.23-.54-.5-.82-.74-.12-.11-.34-.47-.02.01-.1-.14-.18-.29-.27-.43-.27-.44.07.5.01.01-.05-.45.01.19.01.21.05-.34.14-.37-.05.05.29-.64-.21.22.05-.2 1.39-2.23 3.87-3.56 5.52-5.59.99-1.22 1.79-2.56 2.04-4.13.23-1.48-.05-2.87-.37-4.31-.11-.5-.21-.95-.22-1.45 0-.09.03-.92.03-.92.33.11-.41.44-.38.52.12.38 4.37-1 4.7-1.14 3.06-1.24 5.67-3.27 7.59-5.97 2.2-3.09 3.08-6.85 3.82-10.51.27-1.32-.38-2.7-1.75-3.08-1.23-.32-2.8.44-3.07 1.77z"/><path d="m84.25 126.24c1.7 1.65 3.92 2.3 5.94 3.42.2.11.39.22.58.35.63.41-.22-.28.27.22.46.45.01.02.03.01.04.06.07.12.11.18-.1-.13-.14-.28-.13-.45.03-.07.05-.14.08-.21-.12.23-.25.45-.41.66-.1.14-.21.26-.31.39-.46.58-.95 1.15-1.45 1.7-1.71 1.89-3.67 3.58-6.19 4.23-2.97.77-6.01-.1-8.85-1-3.2-1.02-6.34-2.02-9.67-2.55-3.51-.55-7.06-.82-10.59-1.15-5.99-.56-12-1.07-17.93-2.12-3.39-.6-6.77-1.37-10.03-2.49-2.53-.87-5.58-1.99-6.54-4.75-.44-1.27-1.71-2.12-3.08-1.75-1.24.34-2.19 1.79-1.75 3.08 2.37 6.82 10.45 8.72 16.75 10.09 6.86 1.49 13.88 2.12 20.86 2.79 3.81.37 7.66.59 11.44 1.21 3.61.6 6.98 1.84 10.48 2.87 3.55 1.04 7.39 1.58 10.98.39 3.07-1.02 5.64-3.04 7.77-5.43 1.2-1.35 2.66-2.83 3.22-4.57.54-1.68-.05-3.45-1.27-4.66-1.88-1.87-5.14-2.39-6.79-3.98-2.29-2.26-5.83 1.28-3.52 3.52z"/><path d="m4.48 70.78c-.94 5.57-4.31 10.46-4.48 16.2-.08 2.67 1.56 4.36 2.8 6.27 1.25 1.92.37 4.81-.12 6.92-1.01 4.41-2.38 9.11-.97 13.59.64 2.04 1.71 3.91 2.81 5.73 1.39 2.3 2.6 4.66 5.27 5.63 2.39.87 5.19.58 7.7.65 3.57.11 7.13-.15 10.69-.43 1.35-.11 2.5-1.07 2.5-2.5 0-1.27-1.15-2.61-2.5-2.5-2.92.23-5.85.45-8.79.45-2.25.01-4.69.11-6.94-.15-.54-.06-1.25-.2-1.67-.6-.71-.68-1.22-1.89-1.75-2.75-.53-.87-1.05-1.74-1.53-2.64-.47-.88-.65-1.23-.93-2.09-.51-1.58-.57-2.81-.38-4.68.24-2.31.91-4.56 1.41-6.81.57-2.57 1.17-5.43.52-8.05-.25-1-.74-1.94-1.35-2.77-.59-.81-1.27-1.4-1.64-2.34-.38-.99-.04-2.33.2-3.35.31-1.36.77-2.67 1.25-3.97 1.04-2.79 2.21-5.52 2.71-8.47.22-1.33-.35-2.69-1.75-3.08-1.18-.33-2.83.41-3.06 1.74z"/><path d="m16.12 99.19c.07.51-.04-.44-.05-.53-.02-.32-.04-.64-.05-.96-.01-.56 0-1.12.04-1.68.02-.32.05-.64.09-.95-.07.52.08-.43.1-.52.11-.59.26-1.18.43-1.76.17-.59.38-1.16.6-1.73-.16.4.21-.46.25-.54.13-.26.26-.52.39-.78.3-.56.62-1.11.97-1.64.19-.29.38-.57.58-.85.1-.14.2-.28.31-.42-.12.16-.09.13.09-.11.82-1.02 1.07-2.56 0-3.54-.91-.84-2.66-1.09-3.54 0-1.99 2.48-3.57 5.2-4.48 8.27-.88 2.97-1 6.02-.57 9.07.18 1.3 1.91 2.12 3.08 1.75 1.44-.47 1.96-1.69 1.76-3.08z"/><path d="m38.98 94.2c.01 7.17 2.01 14.68 6.54 20.33.85 1.05 2.65.88 3.54 0 1.04-1.04.85-2.48 0-3.54-.18-.23-.18-.23-.43-.58-.21-.3-.42-.61-.61-.93-.43-.68-.81-1.39-1.17-2.12-.65-1.32-1.13-2.65-1.57-4.19-.9-3.1-1.28-5.79-1.29-8.98-.02-3.21-5.02-3.21-5.01.01z"/><path d="m94.64 94.35c.12 2.04.24 4.09.36 6.13.04.66.25 1.29.73 1.77.43.43 1.15.76 1.77.73.65-.03 1.32-.24 1.77-.73.43-.47.77-1.11.73-1.77-.12-2.04-.24-4.09-.36-6.13-.04-.66-.25-1.29-.73-1.77-.43-.43-1.15-.76-1.77-.73-.65.03-1.32.24-1.77.73-.43.48-.77 1.11-.73 1.77z"/><path d="m52.58 87.4c6.43 3.57 13.22 7.98 20.77 8.41 2.08.12 4.07-.6 6.03-1.2 2.12-.64 4.24-1.29 6.36-1.93s4.24-1.29 6.36-1.93c2.14-.65 3.66-1.73 3.55-4.18-.22-4.94-.59-9.89-.88-14.83-.19-3.2-5.19-3.22-5 0 .15 2.59.31 5.19.46 7.78.08 1.3.15 2.59.23 3.89.04.65.08 1.3.12 1.94.02.32.04.65.06.97-.01.58.02.65.1.2l.9-.9c.18-.12-.54.2-.63.23-.47.14-.94.29-1.41.43-.86.26-1.73.52-2.59.79-1.8.55-3.61 1.1-5.41 1.64-3.04.92-6.3 2.49-9.52 1.94-6.15-1.03-11.61-4.6-16.96-7.58-2.83-1.56-5.35 2.76-2.54 4.33z"/><path d="m63.35 115.17c-3.5 2.87-5.76 7.49-5.27 12.06.2 1.87.86 3.47 2.35 4.67 1.66 1.34 3.6 2.53 5.6 3.29 3.88 1.48 7.26-.16 9.59-3.34 1.15-1.57 1.94-3.34 2.98-4.97.43-.68.53-.85 1.09-1.4.39-.39.85-.67 1.19-.78 1.91-.62 4.43-.19 6.63-.18 2.91.01 5.83-.12 8.72-.47 1.34-.16 2.5-1.03 2.5-2.5 0-1.22-1.15-2.66-2.5-2.5-4.48.55-8.88.3-13.37.35-3.5.04-6.2 1.52-8.19 4.37-.97 1.39-1.67 2.94-2.57 4.37-.72 1.16-1.37 2.13-2.48 2.59.47-.2-.55.1-.23.05.12-.02-.49.02-.68 0 .29.02-.64-.15-.75-.19-.35-.11-.67-.25-1-.41-.85-.43-1.65-.96-2.45-1.48-.67-.43-.82-.46-1.26-.97.21.25-.1-.3-.08-.2-.12-.41-.14-.63-.16-.97-.05-1.03.07-1.99.37-2.97.61-1.98 1.9-3.58 3.49-4.88 1.05-.86.89-2.65 0-3.54-1.01-1.03-2.47-.86-3.52-0z"/><path d="m112.17 54.51c5.7 1.03 10.52 4.22 14.19 8.63 1.8 2.15 3.36 4.69 4.4 7.3 1.25 3.13 1.15 6.54 1.46 9.84.3 3.19.99 5.89 2.52 8.69.65 1.18 1.34 2.34 1.9 3.57.15.34.29.68.41 1.1.01.03.31.82.12.36.02.16.02.31.02.47.15-.48.12-.5-.1-.06-.57.62-.96 1.61-1.36 2.34-.43.78-.84 1.57-1.24 2.37-.75 1.48-1.36 3.05-2.2 4.49-.74 1.28-1.79 1.91-3.05 2.62-1.74.99-3.55 1.85-5.38 2.68-3.82 1.73-7.62 3.53-11.46 5.22-3.84 1.7-7.75 3.23-11.62 4.86-1.24.52-2.14 1.65-1.75 3.08.32 1.17 1.82 2.27 3.08 1.75 3.83-1.61 7.7-3.15 11.51-4.79 3.72-1.61 7.36-3.4 11.07-5.04 1.83-.81 3.65-1.62 5.43-2.54 1.72-.89 3.65-1.83 4.98-3.27 1.22-1.32 1.95-2.9 2.71-4.5.8-1.68 1.64-3.35 2.56-4.97.88-1.55 1.95-2.94 1.78-4.81-.13-1.53-.74-2.93-1.41-4.3-1.34-2.73-2.81-4.7-3.31-7.57-.65-3.74-.34-7.58-1.34-11.27-.86-3.22-2.61-6.34-4.57-9.02-4.37-5.99-10.63-10.68-18.03-12.02-1.33-.24-2.69.36-3.08 1.75-.32 1.18.43 2.8 1.76 3.04z"/><path d="m117.62 92.22c-4.54 1.5-8.49 4.1-12.34 6.87-3.39 2.44-6.46 5.3-9.96 7.59-1.63 1.07-3.29 1.95-5.19 2.42-2.38.58-4.82.84-7.26 1.02-5.1.37-10.23.47-15.2 1.74-3.11.8-1.79 5.62 1.33 4.82 9.25-2.37 19.74-.03 28.18-5.26 7.39-4.58 13.31-11.58 21.77-14.38 3.04-1 1.74-5.83-1.33-4.82z"/><path d="m102.45 90.81c4.99-2 11.12-2.07 14.38-6.99 1.5-2.27 2.16-5.08 2.6-7.74.53-3.22.91-6.46 1.36-9.69.18-1.34-.32-2.68-1.75-3.08-1.17-.32-2.89.4-3.08 1.75-.42 3.03-.8 6.06-1.26 9.08-.35 2.24-.75 4.66-1.87 6.63-.98 1.72-2.78 2.53-4.76 3.15-2.31.73-4.71 1.15-6.96 2.06-1.25.5-2.13 1.67-1.75 3.08.34 1.19 1.83 2.25 3.09 1.75z"/><path d="m44.92 136.01c.75 4.4 2.62 8.6 5.15 12.26 2.29 3.32 5.27 5.92 9.3 6.84 1.32.3 2.71-.4 3.08-1.75.35-1.26-.42-2.78-1.75-3.08-.82-.19-1.69-.47-2.17-.72-.38-.19-.75-.41-1.11-.65-.17-.11-.34-.23-.51-.36.21.16.04.03-.06-.06-.58-.52-1.13-1.05-1.63-1.65-.1-.11-.19-.23-.28-.34.3.37-.01-.02-.07-.1-.29-.4-.57-.8-.84-1.21-2.16-3.26-3.61-6.65-4.27-10.52-.23-1.33-1.87-2.08-3.08-1.75-1.42.4-1.99 1.75-1.76 3.09z"/><path d="m83.51 141.55c1.4 3.64 2.81 7.28 4.21 10.91.47 1.22 1.7 2.19 3.08 1.75 1.18-.38 2.25-1.77 1.75-3.08-1.4-3.64-2.81-7.28-4.21-10.91-.47-1.22-1.7-2.19-3.08-1.75-1.18.39-2.25 1.78-1.75 3.08z"/><path d="m98.85 163.07c-.05.36.07-.23.1-.33.04-.15.09-.31.14-.46-.01.04-.15.33-.03.06.09-.2.2-.4.32-.59.08-.13.16-.25.24-.37.22-.31-.24.27.02-.01.32-.35.66-.68 1.02-.99.35-.3-.18.12.2-.15.24-.17.49-.34.74-.51 1.76-1.15 3.71-2.12 5.17-3.68 1.74-1.86 2.5-4.27 2.22-6.8-.48-4.3-1.49-8.59-2.24-12.84-.21-1.2-.43-2.39-.64-3.59-.17-.93-.48-1.94-.33-2.89.27-1.77 1.81-3.39 2.74-4.85 1.72-2.73-2.6-5.24-4.32-2.52-1.03 1.64-2.22 3.17-2.92 4.99-.75 1.96-.47 3.87-.12 5.88.79 4.47 1.59 8.94 2.38 13.41.14.8.39 2 .47 2.57.04.28.05.56.05.83 0 .13-.1 1.02-.01.57-.05.26-.12.51-.2.77-.08.27.04-.06.05-.09-.06.13-.12.26-.19.38-.11.18-.22.36-.34.53.28-.4-.15.15-.28.29-.15.15-.31.29-.46.43-.11.09-.22.18-.33.27.03-.02.31-.23.08-.06-.45.32-.91.62-1.38.92-.86.54-1.74 1.04-2.56 1.63-2.57 1.83-4.15 4.04-4.57 7.21-.18 1.34 1.28 2.5 2.5 2.5 1.48-.01 2.31-1.17 2.48-2.51z"/><path d="m53.84 151.37c-.89 4.65-.24 9.22 1.74 13.51.95 2.06 2.24 3.89 3.61 5.68 1.27 1.66 2.72 3.38 3.27 5.44.82 3.11 5.65 1.79 4.82-1.33-1.11-4.2-4.6-7.14-6.65-10.85-1.86-3.38-2.71-7.3-1.97-11.12.25-1.32-.37-2.7-1.75-3.08-1.22-.33-2.81.42-3.07 1.75z"/><path d="m85.85 154.06c-1.25 4.45-2.07 9.01-2.51 13.61-.22 2.33-.33 4.67-.29 7.02.04 2.01.02 4.33.61 6.27 1.06 3.43 4.36 4.94 7.66 5.47 1.79.29 3.59.42 5.4.56 1.71.14 3.54.57 5.21-.02 3.07-1.08 3.15-4.69.84-6.6-2.18-1.8-5.28-2.8-7.97-3.53-3.11-.84-4.44 3.98-1.33 4.82 1.83.49 3.59 1.13 5.26 2.03.24.13.52.37.78.45.56.16-.07 1.47.53-.82-.37 1.42-.03-1.29.32-1.05-.14-.1-.8 0-1-.02-.34-.03-.68-.08-1.03-.12-2.52-.27-4.92-.24-7.26-.84-.27-.07-.53-.14-.8-.23-.09-.03-.67-.27-.38-.14-.59-.28-.76-.4-1.01-.64-.25-.25-.33-.36-.42-.65-.18-.61-.22-1.25-.27-1.89-.31-3.56-.18-7.16.19-10.71.41-3.93 1.2-7.83 2.27-11.64.9-3.11-3.93-4.43-4.8-1.33z"/><path d="m99.04 154.52c-.4 4.8-1.57 9.55-3.43 13.99-.9 2.15-2.08 4.12-3.14 6.19-1.25 2.45-1.74 5.12-.14 7.54 1.76 2.67 6.1.17 4.32-2.52-1.06-1.61.87-3.76 1.62-5.19 1.08-2.05 2.01-4.19 2.82-6.36 1.63-4.39 2.57-8.99 2.96-13.65.11-1.35-1.23-2.5-2.5-2.5-1.46 0-2.4 1.15-2.51 2.5z"/><path d="m73.63 144.3c.4 8.17-3.81 15.84-1.9 24.06.8 3.46 2.78 6.87 1.06 10.38-.18.36-.38.97-.7 1.23-.3.24-.01.04.01.04-.41.13-1.11-.1-1.52-.15-.63-.08-1.26-.13-1.9-.16-1.11-.05-2.23-.02-3.34.09-.16.02-2.71.13-2.79.29-.03.06 1.13 1.72.63 1.68.1.01.31-.2.41-.24.43-.15.86-.34 1.28-.51 1.13-.46 2.13-1 3.07-1.79 1.76-1.49 2.77-3.61 2.88-5.89.17-3.22-4.84-3.21-5 0-.08 1.63-1.62 2.61-3.04 3.16-2.36.9-5.03 2.62-4.36 5.59.67 2.99 3.76 3.11 6.21 2.8 1.26-.16 2.53-.23 3.8-.19 1.28.04 2.59.37 3.87.31 2.72-.12 4.18-2.26 5.17-4.53 1-2.3 1.22-4.64.81-7.1-.38-2.31-1.35-4.47-1.83-6.76-.44-2.12-.36-4.37-.06-6.5.73-5.29 2.5-10.39 2.24-15.8-.16-3.21-5.16-3.23-5-.01z"/><path d="m111.15 101.02c1.08-2.44 1.81-5.03 2.08-7.69.1-.96.1-1.93.17-2.89.02-.26.08-.54.08-.8 0 .14-.08.48-.01.15.02-.11.04-.22.06-.33.05-.23.16-.47.19-.69.04-.26-.23.38-.08.18.07-.09.12-.22.17-.32.67-1.13.29-2.79-.9-3.42-1.21-.64-2.71-.3-3.42.9-1.17 1.96-1.07 4.36-1.21 6.56-.01.22-.04.44-.05.66-.02.36 0-.1.03-.2-.03.09-.03.2-.05.29-.11.62-.24 1.23-.38 1.84-.14.59-.29 1.18-.47 1.76-.1.31-.2.62-.31.93-.05.14-.11.28-.16.41-.14.39.24-.53-.06.14-.53 1.19-.39 2.74.9 3.42 1.09.57 2.86.37 3.42-.9z"/><path d="m51.25 101.99c2.5.41 5 .82 7.5 1.23.36.06.71.12 1.07.17.68.11 1.31.11 1.93-.25.52-.3 1.01-.9 1.15-1.49.27-1.2-.37-2.85-1.75-3.08-2.5-.41-5-.82-7.5-1.23-.36-.06-.71-.12-1.07-.17-.68-.11-1.31-.11-1.93.25-.52.3-1.01.9-1.15 1.49-.27 1.21.37 2.85 1.75 3.08z"/><path d="m53.81 110.14c3.05-.14 6.09-.27 9.14-.41l1.32-.06c1.3-.06 2.56-1.11 2.5-2.5-.06-1.3-1.1-2.56-2.5-2.5-3.05.14-6.09.27-9.14.41-.44.02-.88.04-1.32.06-1.3.06-2.56 1.11-2.5 2.5.05 1.31 1.1 2.57 2.5 2.5z"/><path d="m82.04 40.56c.55-.24-.28.1-.38.14-.2.07-.4.14-.6.21-.47.16-.95.3-1.43.43-.42.11-.84.21-1.26.29-.28.06-.57.11-.85.16-.13.02-.77.1-.19.03-.94.11-1.88.18-2.83.18-.51 0-1.02-.01-1.53-.04-.22-.01-.44-.03-.65-.05-.11-.01-1.03-.12-.42-.04-.7-.09-1.29-.12-1.93.25-.52.3-1.01.9-1.15 1.49-.27 1.17.36 2.89 1.75 3.08 4.82.65 9.51.09 13.99-1.82 1.21-.51 1.56-2.38.9-3.42-.81-1.25-2.13-1.44-3.42-.89z"/><path d="m77.22 33.25c-.61.18-1.21.36-1.83.5-.23.05-.47.1-.7.14-.16.03-.31.05-.47.08.27-.04.26-.04-.04-.01-.56.02-1.1.05-1.66 0 .52.05-.4-.09-.5-.12-.27-.07-.53-.15-.79-.24-1.05-.35-2.06-.77-3.16-.94-1.54-.24-2.94-.12-4.36.56-1.18.57-1.59 2.35-.9 3.42.78 1.21 2.16 1.5 3.42.9-.54.26.2-.03.36-.06-.6.1.02.03.17.04.14 0 .28.01.43.03-.31-.04-.32-.04-.03.01.21.05.41.09.62.15 1.1.31 2.14.8 3.26 1.04 2.54.53 5.08.07 7.52-.67 1.25-.38 2.17-1.77 1.75-3.08-.42-1.26-1.75-2.16-3.09-1.75z"/><path d="m63.89 37.88c3.22 0 3.22-5 0-5s-3.22 5 0 5z"/><path d="m68.07 35.17c.89-.46 1.82-.89 2.69-1.39.66-.38 1.27-.91 1.67-1.57.66-1.1.56-2.43-.21-3.43-1.01-1.3-2.77-1.44-4.29-1.52-1.22-.06-2.45.07-3.64.29-.75.14-1.34.78-1.62 1.45-.3.72-.29 1.54.13 2.22.69 1.14 1.44 2.24 2.25 3.3.16.29.37.53.64.7.24.22.52.37.85.45.6.16 1.4.09 1.93-.25s1-.86 1.15-1.49c.14-.61.15-1.4-.25-1.93-.81-1.06-1.56-2.16-2.25-3.3-.5 1.22-1 2.45-1.49 3.67.23-.04.46-.08.7-.11-.22.03-.44.06-.66.09 1.11-.14 2.23-.14 3.35.01-.22-.03-.44-.06-.66-.09.32.05.65.09.96.21-.2-.08-.4-.17-.6-.25.07.03.13.07.2.12-.17-.13-.34-.26-.51-.39.04.03.07.06.11.1-.13-.17-.26-.34-.39-.51.03.04.05.08.07.12-.08-.2-.17-.4-.25-.6.02.04.03.08.04.12-.03-.22-.06-.44-.09-.66.01.06.01.12 0 .18.03-.22.06-.44.09-.66-.01.04-.02.08-.04.12.08-.2.17-.4.25-.6-.04.09-.09.16-.14.24.13-.17.26-.34.39-.51-.1.12-.22.23-.34.33.17-.13.34-.26.51-.39-.44.33-.96.55-1.44.8-.53.27-1.06.55-1.59.82-.54.28-.99.92-1.15 1.49-.16.6-.09 1.4.25 1.93.72 1.18 2.13 1.54 3.38.89z"/><path d="m66.87 25.1c.21.06.42.08.63.11s.41.06.62.07c.11 0 .21 0 .32-.01.31-.03.64-.07.95-.14.39-.09.78-.27 1.14-.44.09-.04.17-.09.25-.15.21-.14.41-.31.61-.47.04-.03.08-.07.12-.1.24-.23.42-.49.52-.8.16-.3.23-.62.22-.96.01-.34-.06-.67-.22-.96-.1-.31-.27-.58-.52-.8-.17-.13-.34-.26-.51-.39-.39-.23-.81-.34-1.26-.34-.22.03-.44.06-.66.09-.42.12-.79.33-1.1.64-.05.04-.09.08-.14.12l.51-.39c-.14.1-.28.19-.44.25.2-.08.4-.17.6-.25-.2.09-.42.14-.64.17.22-.03.44-.06.66-.09-.22.03-.45.03-.67 0l.66.09c-.1-.01-.2-.03-.3-.06-.33-.1-.66-.12-1-.04-.33.02-.64.11-.93.3-.29.16-.53.37-.7.64-.22.24-.37.52-.45.85-.03.22-.06.44-.09.66 0 .45.12.87.34 1.26.13.17.26.34.39.51.3.3.67.51 1.09.63z"/><path d="m67.82 24.02c3.22 0 3.22-5 0-5s-3.23 5 0 5z"/><path d="m82.85 27.24c.18.02.36.02.54.01.3-.03.61-.07.91-.12.09-.02.18-.04.27-.07.08-.03.16-.06.24-.09.27-.11.55-.21.81-.36.07-.04.14-.08.21-.13.24-.17.48-.35.69-.54.13-.17.26-.34.39-.51.18-.29.28-.6.3-.93.06-.22.06-.44 0-.66-.02-.33-.11-.64-.3-.93-.24-.33-.48-.67-.79-.94-.23-.2-.47-.38-.72-.56-.09-.07-.19-.13-.29-.18-.29-.18-.6-.28-.93-.3-.33-.07-.66-.06-1 .04-.33.08-.61.23-.85.45-.27.18-.49.41-.64.7-.08.2-.17.4-.25.6-.12.44-.12.89 0 1.33.08.2.17.4.25.6.22.38.52.67.9.9.12.07.24.15.35.23-.17-.13-.34-.26-.51-.39.18.14.35.3.49.48-.13-.17-.26-.34-.39-.51.02.02.04.05.06.07.13-1.01.26-2.02.39-3.03-.04.04-.08.08-.13.11.17-.13.34-.26.51-.39-.15.11-.31.21-.48.28.2-.08.4-.17.6-.25-.21.09-.42.15-.65.18l.66-.09c-.22.03-.43.03-.65 0-.34-.01-.67.06-.96.22-.31.1-.58.27-.8.52-.24.23-.42.49-.52.8-.16.3-.23.62-.22.96.03.22.06.44.09.66.12.42.33.79.64 1.1.17.13.34.26.51.39.4.23.82.35 1.27.35z"/><path d="m81.24 21.03c-.27.02-.55.05-.82.11-.24.06-.59.23-.74.3-.05.02-.09.04-.13.07-.11.07-.22.16-.31.24-.09.07-.22.16-.31.25-.18.17-.36.43-.48.6-.14.2-.26.57-.32.71s-.06.3-.08.45c-.01.09-.05.27-.05.4 0 .24.05.49.09.73s.21.56.28.7c.11.22.29.41.44.59.15.17.5.41.58.46.03.02.06.04.1.06.22.11.45.21.69.29l.12.03c.25.04.51.09.77.1h.12c.61-.07.94-.1 1.48-.41.21-.12.42-.28.59-.45.16-.16.3-.36.42-.55.01-.02.02-.03.03-.05.18-.29.28-.6.3-.93.07-.33.06-.66-.04-1-.08-.33-.23-.61-.45-.85-.18-.27-.41-.49-.7-.64-.2-.08-.4-.17-.6-.25-.44-.12-.89-.12-1.33 0-.2.08-.4.17-.6.25-.38.22-.67.52-.9.9-.01.02-.02.04-.04.07.13-.17.26-.34.39-.51-.02.02-.04.04-.06.06.17-.13.34-.26.51-.39-.03.02-.07.04-.1.06.2-.08.4-.17.6-.25-.05.02-.1.03-.15.04.22-.03.44-.06.66-.09-.07.01-.14.01-.21 0 .22.03.44.06.66.09-.07-.01-.14-.03-.2-.05.2.08.4.17.6.25-.05-.02-.09-.05-.14-.08.17.13.34.26.51.39-.03-.02-.06-.05-.08-.08.13.17.26.34.39.51-.02-.02-.03-.05-.04-.08.08.2.17.4.25.6-.01-.04-.02-.07-.03-.11.03.22.06.44.09.66 0-.04 0-.07 0-.11-.03.22-.06.44-.09.66.01-.04.02-.08.03-.12-.08.2-.17.4-.25.6.02-.04.04-.09.07-.12-.13.17-.26.34-.39.51.04-.05.09-.1.14-.14-.17.13-.34.26-.51.39.06-.04.12-.08.19-.11-.2.08-.4.17-.6.25.08-.03.15-.05.23-.07-.22.03-.44.06-.66.09.02 0 .04 0 .06-.01.34.01.67-.06.96-.22.31-.1.58-.27.8-.52.24-.23.42-.49.52-.8.16-.3.23-.62.22-.96-.03-.22-.06-.44-.09-.66-.12-.42-.33-.79-.64-1.1-.17-.13-.34-.26-.51-.39-.37-.26-.79-.37-1.24-.37z"/><path d="m101.42 20.12c1.51-2.42 1.94-5.37 1.59-8.16-.19-1.51-.52-2.96-.99-4.41-.41-1.26-.8-2.63-1.47-3.77-.79-1.35-2.11-2.4-3.73-2.42-1.68-.03-2.96 1.02-4.15 2.07-2.09 1.85-3.89 4.03-5.39 6.38-.7 1.1-.27 2.81.9 3.42 1.24.65 2.67.28 3.42-.9.28-.44.56-.86.86-1.29.15-.21.3-.42.46-.62-.21.27.27-.34.33-.4.66-.8 1.36-1.55 2.1-2.27.4-.39.83-.75 1.24-1.13.07-.06.13-.11.2-.17-.21.15-.2.14.04-.03.06-.04.13-.08.19-.12-.26.08-.26.08.02 0-.31.02-.49 0-.8-.08-.07-.06-.14-.12-.22-.18.19.2.18.17-.02-.08.12.16.22.33.31.51.07.13.28.68.07.13.37 1.01.74 2.02 1.04 3.06.16.53.3 1.06.41 1.6.06.27.11.54.16.81.1.51.02-.05.06.43.04.49.07.98.06 1.47 0 .25-.03.49-.04.74-.02.58.07-.21-.04.31s-.23 1.03-.4 1.53c-.06.16-.05.15.03-.03-.05.11-.1.22-.16.33-.13.26-.27.5-.42.74-.7 1.11-.27 2.8.9 3.42 1.25.66 2.7.29 3.44-.89z"/><path d="m85.62 8.36c-3.97-.62-7.96-.96-11.98-.92-1.31.01-2.56 1.14-2.5 2.5.06 1.34 1.1 2.51 2.5 2.5 1.86-.02 3.71.04 5.56.17.89.06 1.78.15 2.66.24.44.05.88.1 1.33.16-.58-.08.22.03.33.05.26.04.51.08.77.12.69.11 1.3.11 1.93-.25.52-.3 1.01-.9 1.15-1.49.27-1.2-.37-2.86-1.75-3.08z"/><path d="m74.77 8.43c-1.55-2.81-3.52-5.43-5.78-7.71-.92-.93-2.63-.99-3.54 0-.92 1-.98 2.54 0 3.54.92.93 1.79 1.92 2.6 2.96-.13-.17-.26-.34-.39-.51 1.04 1.34 1.97 2.76 2.79 4.25.63 1.15 2.3 1.62 3.42.9 1.16-.76 1.57-2.2.9-3.43z"/><path d="m96.22 17.83c.94-.95 1.62-2.12 2.02-3.39.41-1.31.41-2.65.18-3.99-.13-.75-.79-1.34-1.45-1.62-.68-.29-1.59-.33-2.22.13-.55.39-1.07.8-1.49 1.34-.26.33-.52.65-.73 1.02-.22.37-.38.78-.54 1.18-.51 1.27-.53 2.66-.28 3.98.11.59.65 1.2 1.15 1.49.54.31 1.33.45 1.93.25s1.19-.57 1.49-1.15c.33-.62.38-1.23.25-1.93-.02-.09-.03-.19-.05-.29.03.22.06.44.09.66-.05-.38-.04-.77 0-1.15-.03.22-.06.44-.09.66.06-.43.17-.85.34-1.25-.08.2-.17.4-.25.6.16-.38.37-.73.61-1.06-.13.17-.26.34-.39.51.24-.31.5-.58.81-.82-.17.13-.34.26-.51.39.06-.04.12-.09.17-.13-1.22-.5-2.45-1-3.67-1.49.01.08.02.15.04.23-.03-.22-.06-.44-.09-.66.06.49.06.97 0 1.46.03-.22.06-.44.09-.66-.07.51-.21 1-.4 1.48.08-.2.17-.4.25-.6-.19.45-.44.87-.73 1.26.13-.17.26-.34.39-.51-.14.18-.29.36-.46.52-.45.46-.73 1.12-.73 1.77 0 .61.27 1.35.73 1.77.48.44 1.1.76 1.77.73s1.3-.25 1.77-.73z"/><path d="m64.35 21.8c0-2.86 2.08-5.5 3.05-8.29 1.04-3 1.04-6.52 1.48-9.43.2-1.33-.33-2.69-1.75-3.08-1.18-.32-2.88.4-3.08 1.75-.49 3.29-.42 6.6-1.58 9.72-1.09 2.95-3.13 5.88-3.12 9.34 0 3.21 5 3.22 5-.01z"/><path d="m57.34 48.54c.03-.29.06-.59.1-.88.01-.11.13-1.04.05-.43.08-.57.17-1.15.27-1.72.19-1.09.44-2.17.75-3.23.15-.51.32-1.01.51-1.51.04-.1.39-.92.15-.39.12-.26.23-.52.36-.77.52-1.05 1.14-2.04 1.85-2.98.79-1.05.2-2.84-.9-3.42-1.32-.7-2.57-.22-3.42.9-3.17 4.18-4.17 9.32-4.72 14.42-.14 1.3 1.25 2.56 2.5 2.5 1.47-.06 2.35-1.1 2.5-2.49z"/><path d="m110.08 50.77c.5-2.73.28-5.49-.65-8.11-.82-2.31-2.16-4.2-3.46-6.25-.5-.79-1.01-1.61-1.28-2.52-.33-1.12-.25-2.34-.21-3.49.09-2.85.22-5.68-.84-8.39-.49-1.26-1.68-2.13-3.08-1.75-1.2.33-2.24 1.81-1.75 3.08.94 2.39.72 4.77.66 7.28s.23 4.79 1.42 7.03c.97 1.84 2.34 3.44 3.28 5.29.98 1.93 1.48 4.36 1.09 6.5-.24 1.33.36 2.7 1.75 3.08 1.2.33 2.82-.42 3.07-1.75z"/><path d="m103.51 54.32c-1.8.94-3.6 1.88-5.4 2.81-.26.13-.51.27-.77.4-1.16.61-1.6 2.32-.9 3.42.76 1.18 2.18 1.54 3.42.9 1.8-.94 3.6-1.88 5.4-2.81.26-.13.51-.27.77-.4 1.16-.61 1.6-2.32.9-3.42-.76-1.18-2.17-1.55-3.42-.9z"/><path d="m84.13 59.92c-2.97-3.28-6.81-5.69-11.01-7.05-1.24-.4-2.78.47-3.08 1.75-.31 1.37.41 2.64 1.75 3.08.47.15.93.31 1.39.5.1.04.2.09.3.12-.12-.04-.45-.2-.15-.06.22.1.45.2.67.31.89.42 1.74.9 2.57 1.44.39.25.77.52 1.14.79.07.05.45.35.14.1-.29-.23.01.01.07.06.19.15.38.31.57.47.75.64 1.45 1.32 2.11 2.05.88.97 2.65.96 3.54 0 .94-1.07.93-2.53-.01-3.56z"/></svg>