<?xml version="1.0" encoding="utf-8"?>
<!-- Generator: Adobe Illustrator 27.9.3, SVG Export Plug-In . SVG Version: 9.03 Build 53313)  -->
<svg version="1.1" id="Layer_1" xmlns="http://www.w3.org/2000/svg" xmlns:xlink="http://www.w3.org/1999/xlink" x="0px" y="0px"
	 viewBox="0 0 142.18 187.26" style="enable-background:new 0 0 142.18 187.26;" xml:space="preserve">
<g>
	<g>
		<path d="M13.47,73.68c-0.58-1.43-1.25-2.73-2.19-3.96c-0.35-0.46-0.72-0.91-1.08-1.37c0.23,0.3-0.78-1.2-0.47-0.67
			c-0.05-0.08-0.17-0.76-0.09-0.21c-0.01-0.04,0.07-0.75,0-0.36c0.09-0.49,0.29-0.94,0.51-1.38c0.67-1.32,1.4-2.62,2.19-3.88
			c2.75-4.41,6.44-7.92,10.93-10.54c0.68-0.4,1.47-0.71,2.11-1.16c0.12-0.06,0.25-0.13,0.37-0.19c-0.48,0.09-0.6,0.12-0.33,0.08
			c0.18,0.02,0.4-0.05,0.58-0.06c1.14-0.11,2.29-0.17,3.43-0.2c2.37-0.06,4.73-0.01,7.1,0.08c4.5,0.18,9.01,0.52,13.49,1.07
			c0.13,0.02,0.25,0.03,0.38,0.05c0.74,0.09-0.22-0.04,0.19,0.02c0.31,0.05,0.62,0.09,0.93,0.14c0.18,0.03,0.35,0.06,0.53,0.1
			c0.05,0.01,0.11,0.03,0.16,0.04c-0.38-0.11,0.06,0.04,0.28,0.16c2.92,1.52,5.64,3.47,8.39,5.26c2.71,1.76,5.21-2.57,2.52-4.32
			c-2.64-1.72-5.24-3.54-8-5.05c-1.3-0.71-2.37-1.01-3.81-1.21c-4.67-0.64-9.39-1.01-14.1-1.23c-2.59-0.12-5.18-0.19-7.77-0.13
			c-1.16,0.03-2.32,0.08-3.48,0.18c-0.6,0.06-1.24,0.09-1.82,0.22c-0.86,0.2-1.69,0.72-2.46,1.14c-5.38,2.93-9.92,6.93-13.31,12.05
			c-0.9,1.36-1.72,2.78-2.48,4.22c-0.79,1.5-1.6,3.14-1.52,4.88c0.13,3.15,2.9,4.85,4,7.53c0.51,1.25,1.66,2.13,3.08,1.75
			C12.91,76.43,13.99,74.94,13.47,73.68L13.47,73.68z"/>
	</g>
	<g>
		<path d="M50.72,71.53c-0.65,3.22-1.3,6.62-3.31,9.31c-1.57,2.11-3.91,3.62-6.45,4.3c-1.69,0.45-3.56,0.3-4.89,1.64
			c-1.19,1.2-1.39,3-1.26,4.61c0.11,1.27,0.55,2.48,0.68,3.74c0.02,0.18-0.01,0.73-0.15,1.13c-0.26,0.7-0.78,1.27-1.28,1.8
			c-2.02,2.1-4.97,3.8-5.97,6.68c-0.66,1.91-0.02,3.81,1.26,5.28c2.7,3.1,7.39,4.53,11.16,5.77c2.01,0.66,4.05,1.23,6.06,1.91
			c3.74,1.27,7.4,2.76,11.19,3.89c3.09,0.92,4.41-3.9,1.33-4.82c-5.19-1.55-10.22-3.61-15.4-5.22c-1.81-0.56-3.61-1.15-5.37-1.85
			c-0.78-0.31-1.41-0.58-2.32-1.05c-0.44-0.22-0.88-0.46-1.3-0.72c-0.13-0.08-0.27-0.16-0.4-0.25c-0.08-0.05-0.84-0.6-0.4-0.25
			c-0.29-0.23-0.54-0.5-0.82-0.74c-0.12-0.11-0.34-0.47-0.02,0.01c-0.1-0.14-0.18-0.29-0.27-0.43c-0.27-0.44,0.07,0.5,0.01,0.01
			c-0.05-0.45,0.01,0.19,0.01,0.21c0.05-0.34,0.14-0.37-0.05,0.05c0.29-0.64-0.21,0.22,0.05-0.2c1.39-2.23,3.87-3.56,5.52-5.59
			c0.99-1.22,1.79-2.56,2.04-4.13c0.23-1.48-0.05-2.87-0.37-4.31c-0.11-0.5-0.21-0.95-0.22-1.45c0-0.09,0.03-0.92,0.03-0.92
			c0.33,0.11-0.41,0.44-0.38,0.52c0.12,0.38,4.37-1,4.7-1.14c3.06-1.24,5.67-3.27,7.59-5.97c2.2-3.09,3.08-6.85,3.82-10.51
			c0.27-1.32-0.38-2.7-1.75-3.08C52.56,69.44,50.99,70.2,50.72,71.53L50.72,71.53z"/>
	</g>
	<g>
		<path d="M84.25,126.24c1.7,1.65,3.92,2.3,5.94,3.42c0.2,0.11,0.39,0.22,0.58,0.35c0.63,0.41-0.22-0.28,0.27,0.22
			c0.46,0.45,0.01,0.02,0.03,0.01c0.04,0.06,0.07,0.12,0.11,0.18c-0.1-0.13-0.14-0.28-0.13-0.45c0.03-0.07,0.05-0.14,0.08-0.21
			c-0.12,0.23-0.25,0.45-0.41,0.66c-0.1,0.14-0.21,0.26-0.31,0.39c-0.46,0.58-0.95,1.15-1.45,1.7c-1.71,1.89-3.67,3.58-6.19,4.23
			c-2.97,0.77-6.01-0.1-8.85-1c-3.2-1.02-6.34-2.02-9.67-2.55c-3.51-0.55-7.06-0.82-10.59-1.15c-5.99-0.56-12-1.07-17.93-2.12
			c-3.39-0.6-6.77-1.37-10.03-2.49c-2.53-0.87-5.58-1.99-6.54-4.75c-0.44-1.27-1.71-2.12-3.08-1.75c-1.24,0.34-2.19,1.79-1.75,3.08
			c2.37,6.82,10.45,8.72,16.75,10.09c6.86,1.49,13.88,2.12,20.86,2.79c3.81,0.37,7.66,0.59,11.44,1.21
			c3.61,0.6,6.98,1.84,10.48,2.87c3.55,1.04,7.39,1.58,10.98,0.39c3.07-1.02,5.64-3.04,7.77-5.43c1.2-1.35,2.66-2.83,3.22-4.57
			c0.54-1.68-0.05-3.45-1.27-4.66c-1.88-1.87-5.14-2.39-6.79-3.98C85.48,120.46,81.94,124,84.25,126.24L84.25,126.24z"/>
	</g>
	<g>
		<path d="M4.48,70.78C3.54,76.35,0.17,81.24,0,86.98c-0.08,2.67,1.56,4.36,2.8,6.27c1.25,1.92,0.37,4.81-0.12,6.92
			c-1.01,4.41-2.38,9.11-0.97,13.59c0.64,2.04,1.71,3.91,2.81,5.73c1.39,2.3,2.6,4.66,5.27,5.63c2.39,0.87,5.19,0.58,7.7,0.65
			c3.57,0.11,7.13-0.15,10.69-0.43c1.35-0.11,2.5-1.07,2.5-2.5c0-1.27-1.15-2.61-2.5-2.5c-2.92,0.23-5.85,0.45-8.79,0.45
			c-2.25,0.01-4.69,0.11-6.94-0.15c-0.54-0.06-1.25-0.2-1.67-0.6c-0.71-0.68-1.22-1.89-1.75-2.75c-0.53-0.87-1.05-1.74-1.53-2.64
			c-0.47-0.88-0.65-1.23-0.93-2.09c-0.51-1.58-0.57-2.81-0.38-4.68c0.24-2.31,0.91-4.56,1.41-6.81c0.57-2.57,1.17-5.43,0.52-8.05
			c-0.25-1-0.74-1.94-1.35-2.77c-0.59-0.81-1.27-1.4-1.64-2.34c-0.38-0.99-0.04-2.33,0.2-3.35c0.31-1.36,0.77-2.67,1.25-3.97
			c1.04-2.79,2.21-5.52,2.71-8.47c0.22-1.33-0.35-2.69-1.75-3.08C6.36,68.71,4.71,69.45,4.48,70.78L4.48,70.78z"/>
	</g>
	<g>
		<path d="M16.12,99.19c0.07,0.51-0.04-0.44-0.05-0.53c-0.02-0.32-0.04-0.64-0.05-0.96c-0.01-0.56,0-1.12,0.04-1.68
			c0.02-0.32,0.05-0.64,0.09-0.95c-0.07,0.52,0.08-0.43,0.1-0.52c0.11-0.59,0.26-1.18,0.43-1.76c0.17-0.59,0.38-1.16,0.6-1.73
			c-0.16,0.4,0.21-0.46,0.25-0.54c0.13-0.26,0.26-0.52,0.39-0.78c0.3-0.56,0.62-1.11,0.97-1.64c0.19-0.29,0.38-0.57,0.58-0.85
			c0.1-0.14,0.2-0.28,0.31-0.42c-0.12,0.16-0.09,0.13,0.09-0.11c0.82-1.02,1.07-2.56,0-3.54c-0.91-0.84-2.66-1.09-3.54,0
			c-1.99,2.48-3.57,5.2-4.48,8.27c-0.88,2.97-1,6.02-0.57,9.07c0.18,1.3,1.91,2.12,3.08,1.75C15.8,101.8,16.32,100.58,16.12,99.19
			L16.12,99.19z"/>
	</g>
	<g>
		<path d="M38.98,94.2c0.01,7.17,2.01,14.68,6.54,20.33c0.85,1.05,2.65,0.88,3.54,0c1.04-1.04,0.85-2.48,0-3.54
			c-0.18-0.23-0.18-0.23-0.43-0.58c-0.21-0.3-0.42-0.61-0.61-0.93c-0.43-0.68-0.81-1.39-1.17-2.12c-0.65-1.32-1.13-2.65-1.57-4.19
			c-0.9-3.1-1.28-5.79-1.29-8.98C43.97,90.98,38.97,90.98,38.98,94.2L38.98,94.2z"/>
	</g>
	<g>
		<path d="M94.64,94.35c0.12,2.04,0.24,4.09,0.36,6.13c0.04,0.66,0.25,1.29,0.73,1.77c0.43,0.43,1.15,0.76,1.77,0.73
			c0.65-0.03,1.32-0.24,1.77-0.73c0.43-0.47,0.77-1.11,0.73-1.77c-0.12-2.04-0.24-4.09-0.36-6.13c-0.04-0.66-0.25-1.29-0.73-1.77
			c-0.43-0.43-1.15-0.76-1.77-0.73c-0.65,0.03-1.32,0.24-1.77,0.73C94.94,93.06,94.6,93.69,94.64,94.35L94.64,94.35z"/>
	</g>
	<g>
		<path d="M52.58,87.4c6.43,3.57,13.22,7.98,20.77,8.41c2.08,0.12,4.07-0.6,6.03-1.2c2.12-0.64,4.24-1.29,6.36-1.93
			c2.12-0.64,4.24-1.29,6.36-1.93c2.14-0.65,3.66-1.73,3.55-4.18c-0.22-4.94-0.59-9.89-0.88-14.83c-0.19-3.2-5.19-3.22-5,0
			c0.15,2.59,0.31,5.19,0.46,7.78c0.08,1.3,0.15,2.59,0.23,3.89c0.04,0.65,0.08,1.3,0.12,1.94c0.02,0.32,0.04,0.65,0.06,0.97
			c-0.01,0.58,0.02,0.65,0.1,0.2c0.3-0.3,0.6-0.6,0.9-0.9c0.18-0.12-0.54,0.2-0.63,0.23c-0.47,0.14-0.94,0.29-1.41,0.43
			c-0.86,0.26-1.73,0.52-2.59,0.79c-1.8,0.55-3.61,1.1-5.41,1.64c-3.04,0.92-6.3,2.49-9.52,1.94c-6.15-1.03-11.61-4.6-16.96-7.58
			C52.29,81.51,49.77,85.83,52.58,87.4L52.58,87.4z"/>
	</g>
	<g>
		<path d="M63.35,115.17c-3.5,2.87-5.76,7.49-5.27,12.06c0.2,1.87,0.86,3.47,2.35,4.67c1.66,1.34,3.6,2.53,5.6,3.29
			c3.88,1.48,7.26-0.16,9.59-3.34c1.15-1.57,1.94-3.34,2.98-4.97c0.43-0.68,0.53-0.85,1.09-1.4c0.39-0.39,0.85-0.67,1.19-0.78
			c1.91-0.62,4.43-0.19,6.63-0.18c2.91,0.01,5.83-0.12,8.72-0.47c1.34-0.16,2.5-1.03,2.5-2.5c0-1.22-1.15-2.66-2.5-2.5
			c-4.48,0.55-8.88,0.3-13.37,0.35c-3.5,0.04-6.2,1.52-8.19,4.37c-0.97,1.39-1.67,2.94-2.57,4.37c-0.72,1.16-1.37,2.13-2.48,2.59
			c0.47-0.2-0.55,0.1-0.23,0.05c0.12-0.02-0.49,0.02-0.68,0c0.29,0.02-0.64-0.15-0.75-0.19c-0.35-0.11-0.67-0.25-1-0.41
			c-0.85-0.43-1.65-0.96-2.45-1.48c-0.67-0.43-0.82-0.46-1.26-0.97c0.21,0.25-0.1-0.3-0.08-0.2c-0.12-0.41-0.14-0.63-0.16-0.97
			c-0.05-1.03,0.07-1.99,0.37-2.97c0.61-1.98,1.9-3.58,3.49-4.88c1.05-0.86,0.89-2.65,0-3.54C65.86,114.14,64.4,114.31,63.35,115.17
			L63.35,115.17z"/>
	</g>
	<g>
		<path d="M112.17,54.51c5.7,1.03,10.52,4.22,14.19,8.63c1.8,2.15,3.36,4.69,4.4,7.3c1.25,3.13,1.15,6.54,1.46,9.84
			c0.3,3.19,0.99,5.89,2.52,8.69c0.65,1.18,1.34,2.34,1.9,3.57c0.15,0.34,0.29,0.68,0.41,1.1c0.01,0.03,0.31,0.82,0.12,0.36
			c0.02,0.16,0.02,0.31,0.02,0.47c0.15-0.48,0.12-0.5-0.1-0.06c-0.57,0.62-0.96,1.61-1.36,2.34c-0.43,0.78-0.84,1.57-1.24,2.37
			c-0.75,1.48-1.36,3.05-2.2,4.49c-0.74,1.28-1.79,1.91-3.05,2.62c-1.74,0.99-3.55,1.85-5.38,2.68c-3.82,1.73-7.62,3.53-11.46,5.22
			c-3.84,1.7-7.75,3.23-11.62,4.86c-1.24,0.52-2.14,1.65-1.75,3.08c0.32,1.17,1.82,2.27,3.08,1.75c3.83-1.61,7.7-3.15,11.51-4.79
			c3.72-1.61,7.36-3.4,11.07-5.04c1.83-0.81,3.65-1.62,5.43-2.54c1.72-0.89,3.65-1.83,4.98-3.27c1.22-1.32,1.95-2.9,2.71-4.5
			c0.8-1.68,1.64-3.35,2.56-4.97c0.88-1.55,1.95-2.94,1.78-4.81c-0.13-1.53-0.74-2.93-1.41-4.3c-1.34-2.73-2.81-4.7-3.31-7.57
			c-0.65-3.74-0.34-7.58-1.34-11.27c-0.86-3.22-2.61-6.34-4.57-9.02c-4.37-5.99-10.63-10.68-18.03-12.02
			c-1.33-0.24-2.69,0.36-3.08,1.75C110.09,52.65,110.84,54.27,112.17,54.51L112.17,54.51z"/>
	</g>
	<g>
		<path d="M117.62,92.22c-4.54,1.5-8.49,4.1-12.34,6.87c-3.39,2.44-6.46,5.3-9.96,7.59c-1.63,1.07-3.29,1.95-5.19,2.42
			c-2.38,0.58-4.82,0.84-7.26,1.02c-5.1,0.37-10.23,0.47-15.2,1.74c-3.11,0.8-1.79,5.62,1.33,4.82c9.25-2.37,19.74-0.03,28.18-5.26
			c7.39-4.58,13.31-11.58,21.77-14.38C121.99,96.04,120.69,91.21,117.62,92.22L117.62,92.22z"/>
	</g>
	<g>
		<path d="M102.45,90.81c4.99-2,11.12-2.07,14.38-6.99c1.5-2.27,2.16-5.08,2.6-7.74c0.53-3.22,0.91-6.46,1.36-9.69
			c0.18-1.34-0.32-2.68-1.75-3.08c-1.17-0.32-2.89,0.4-3.08,1.75c-0.42,3.03-0.8,6.06-1.26,9.08c-0.35,2.24-0.75,4.66-1.87,6.63
			c-0.98,1.72-2.78,2.53-4.76,3.15c-2.31,0.73-4.71,1.15-6.96,2.06c-1.25,0.5-2.13,1.67-1.75,3.08
			C99.7,90.25,101.19,91.31,102.45,90.81L102.45,90.81z"/>
	</g>
	<g>
		<path d="M44.92,136.01c0.75,4.4,2.62,8.6,5.15,12.26c2.29,3.32,5.27,5.92,9.3,6.84c1.32,0.3,2.71-0.4,3.08-1.75
			c0.35-1.26-0.42-2.78-1.75-3.08c-0.82-0.19-1.69-0.47-2.17-0.72c-0.38-0.19-0.75-0.41-1.11-0.65c-0.17-0.11-0.34-0.23-0.51-0.36
			c0.21,0.16,0.04,0.03-0.06-0.06c-0.58-0.52-1.13-1.05-1.63-1.65c-0.1-0.11-0.19-0.23-0.28-0.34c0.3,0.37-0.01-0.02-0.07-0.1
			c-0.29-0.4-0.57-0.8-0.84-1.21c-2.16-3.26-3.61-6.65-4.27-10.52c-0.23-1.33-1.87-2.08-3.08-1.75
			C45.26,133.32,44.69,134.67,44.92,136.01L44.92,136.01z"/>
	</g>
	<g>
		<path d="M83.51,141.55c1.4,3.64,2.81,7.28,4.21,10.91c0.47,1.22,1.7,2.19,3.08,1.75c1.18-0.38,2.25-1.77,1.75-3.08
			c-1.4-3.64-2.81-7.28-4.21-10.91c-0.47-1.22-1.7-2.19-3.08-1.75C84.08,138.86,83.01,140.25,83.51,141.55L83.51,141.55z"/>
	</g>
	<g>
		<path d="M98.85,163.07c-0.05,0.36,0.07-0.23,0.1-0.33c0.04-0.15,0.09-0.31,0.14-0.46c-0.01,0.04-0.15,0.33-0.03,0.06
			c0.09-0.2,0.2-0.4,0.32-0.59c0.08-0.13,0.16-0.25,0.24-0.37c0.22-0.31-0.24,0.27,0.02-0.01c0.32-0.35,0.66-0.68,1.02-0.99
			c0.35-0.3-0.18,0.12,0.2-0.15c0.24-0.17,0.49-0.34,0.74-0.51c1.76-1.15,3.71-2.12,5.17-3.68c1.74-1.86,2.5-4.27,2.22-6.8
			c-0.48-4.3-1.49-8.59-2.24-12.84c-0.21-1.2-0.43-2.39-0.64-3.59c-0.17-0.93-0.48-1.94-0.33-2.89c0.27-1.77,1.81-3.39,2.74-4.85
			c1.72-2.73-2.6-5.24-4.32-2.52c-1.03,1.64-2.22,3.17-2.92,4.99c-0.75,1.96-0.47,3.87-0.12,5.88c0.79,4.47,1.59,8.94,2.38,13.41
			c0.14,0.8,0.39,2,0.47,2.57c0.04,0.28,0.05,0.56,0.05,0.83c0,0.13-0.1,1.02-0.01,0.57c-0.05,0.26-0.12,0.51-0.2,0.77
			c-0.08,0.27,0.04-0.06,0.05-0.09c-0.06,0.13-0.12,0.26-0.19,0.38c-0.11,0.18-0.22,0.36-0.34,0.53c0.28-0.4-0.15,0.15-0.28,0.29
			c-0.15,0.15-0.31,0.29-0.46,0.43c-0.11,0.09-0.22,0.18-0.33,0.27c0.03-0.02,0.31-0.23,0.08-0.06c-0.45,0.32-0.91,0.62-1.38,0.92
			c-0.86,0.54-1.74,1.04-2.56,1.63c-2.57,1.83-4.15,4.04-4.57,7.21c-0.18,1.34,1.28,2.5,2.5,2.5
			C97.85,165.57,98.68,164.41,98.85,163.07L98.85,163.07z"/>
	</g>
	<g>
		<path d="M53.84,151.37c-0.89,4.65-0.24,9.22,1.74,13.51c0.95,2.06,2.24,3.89,3.61,5.68c1.27,1.66,2.72,3.38,3.27,5.44
			c0.82,3.11,5.65,1.79,4.82-1.33c-1.11-4.2-4.6-7.14-6.65-10.85c-1.86-3.38-2.71-7.3-1.97-11.12c0.25-1.32-0.37-2.7-1.75-3.08
			C55.69,149.29,54.1,150.04,53.84,151.37L53.84,151.37z"/>
	</g>
	<g>
		<path d="M85.85,154.06c-1.25,4.45-2.07,9.01-2.51,13.61c-0.22,2.33-0.33,4.67-0.29,7.02c0.04,2.01,0.02,4.33,0.61,6.27
			c1.06,3.43,4.36,4.94,7.66,5.47c1.79,0.29,3.59,0.42,5.4,0.56c1.71,0.14,3.54,0.57,5.21-0.02c3.07-1.08,3.15-4.69,0.84-6.6
			c-2.18-1.8-5.28-2.8-7.97-3.53c-3.11-0.84-4.44,3.98-1.33,4.82c1.83,0.49,3.59,1.13,5.26,2.03c0.24,0.13,0.52,0.37,0.78,0.45
			c0.56,0.16-0.07,1.47,0.53-0.82c-0.37,1.42-0.03-1.29,0.32-1.05c-0.14-0.1-0.8,0-1-0.02c-0.34-0.03-0.68-0.08-1.03-0.12
			c-2.52-0.27-4.92-0.24-7.26-0.84c-0.27-0.07-0.53-0.14-0.8-0.23c-0.09-0.03-0.67-0.27-0.38-0.14c-0.59-0.28-0.76-0.4-1.01-0.64
			c-0.25-0.25-0.33-0.36-0.42-0.65c-0.18-0.61-0.22-1.25-0.27-1.89c-0.31-3.56-0.18-7.16,0.19-10.71c0.41-3.93,1.2-7.83,2.27-11.64
			C91.55,152.28,86.72,150.96,85.85,154.06L85.85,154.06z"/>
	</g>
	<g>
		<path d="M99.04,154.52c-0.4,4.8-1.57,9.55-3.43,13.99c-0.9,2.15-2.08,4.12-3.14,6.19c-1.25,2.45-1.74,5.12-0.14,7.54
			c1.76,2.67,6.1,0.17,4.32-2.52c-1.06-1.61,0.87-3.76,1.62-5.19c1.08-2.05,2.01-4.19,2.82-6.36c1.63-4.39,2.57-8.99,2.96-13.65
			c0.11-1.35-1.23-2.5-2.5-2.5C100.09,152.02,99.15,153.17,99.04,154.52L99.04,154.52z"/>
	</g>
	<g>
		<path d="M73.63,144.3c0.4,8.17-3.81,15.84-1.9,24.06c0.8,3.46,2.78,6.87,1.06,10.38c-0.18,0.36-0.38,0.97-0.7,1.23
			c-0.3,0.24-0.01,0.04,0.01,0.04c-0.41,0.13-1.11-0.1-1.52-0.15c-0.63-0.08-1.26-0.13-1.9-0.16c-1.11-0.05-2.23-0.02-3.34,0.09
			c-0.16,0.02-2.71,0.13-2.79,0.29c-0.03,0.06,1.13,1.72,0.63,1.68c0.1,0.01,0.31-0.2,0.41-0.24c0.43-0.15,0.86-0.34,1.28-0.51
			c1.13-0.46,2.13-1,3.07-1.79c1.76-1.49,2.77-3.61,2.88-5.89c0.17-3.22-4.84-3.21-5,0c-0.08,1.63-1.62,2.61-3.04,3.16
			c-2.36,0.9-5.03,2.62-4.36,5.59c0.67,2.99,3.76,3.11,6.21,2.8c1.26-0.16,2.53-0.23,3.8-0.19c1.28,0.04,2.59,0.37,3.87,0.31
			c2.72-0.12,4.18-2.26,5.17-4.53c1-2.3,1.22-4.64,0.81-7.1c-0.38-2.31-1.35-4.47-1.83-6.76c-0.44-2.12-0.36-4.37-0.06-6.5
			c0.73-5.29,2.5-10.39,2.24-15.8C78.47,141.1,73.47,141.08,73.63,144.3L73.63,144.3z"/>
	</g>
	<g>
		<path d="M111.15,101.02c1.08-2.44,1.81-5.03,2.08-7.69c0.1-0.96,0.1-1.93,0.17-2.89c0.02-0.26,0.08-0.54,0.08-0.8
			c0,0.14-0.08,0.48-0.01,0.15c0.02-0.11,0.04-0.22,0.06-0.33c0.05-0.23,0.16-0.47,0.19-0.69c0.04-0.26-0.23,0.38-0.08,0.18
			c0.07-0.09,0.12-0.22,0.17-0.32c0.67-1.13,0.29-2.79-0.9-3.42c-1.21-0.64-2.71-0.3-3.42,0.9c-1.17,1.96-1.07,4.36-1.21,6.56
			c-0.01,0.22-0.04,0.44-0.05,0.66c-0.02,0.36,0-0.1,0.03-0.2c-0.03,0.09-0.03,0.2-0.05,0.29c-0.11,0.62-0.24,1.23-0.38,1.84
			c-0.14,0.59-0.29,1.18-0.47,1.76c-0.1,0.31-0.2,0.62-0.31,0.93c-0.05,0.14-0.11,0.28-0.16,0.41c-0.14,0.39,0.24-0.53-0.06,0.14
			c-0.53,1.19-0.39,2.74,0.9,3.42C108.82,102.49,110.59,102.29,111.15,101.02L111.15,101.02z"/>
	</g>
	<g>
		<path d="M51.25,101.99c2.5,0.41,5,0.82,7.5,1.23c0.36,0.06,0.71,0.12,1.07,0.17c0.68,0.11,1.31,0.11,1.93-0.25
			c0.52-0.3,1.01-0.9,1.15-1.49c0.27-1.2-0.37-2.85-1.75-3.08c-2.5-0.41-5-0.82-7.5-1.23c-0.36-0.06-0.71-0.12-1.07-0.17
			c-0.68-0.11-1.31-0.11-1.93,0.25c-0.52,0.3-1.01,0.9-1.15,1.49C49.23,100.12,49.87,101.76,51.25,101.99L51.25,101.99z"/>
	</g>
	<g>
		<path d="M53.81,110.14c3.05-0.14,6.09-0.27,9.14-0.41c0.44-0.02,0.88-0.04,1.32-0.06c1.3-0.06,2.56-1.11,2.5-2.5
			c-0.06-1.3-1.1-2.56-2.5-2.5c-3.05,0.14-6.09,0.27-9.14,0.41c-0.44,0.02-0.88,0.04-1.32,0.06c-1.3,0.06-2.56,1.11-2.5,2.5
			C51.36,108.95,52.41,110.21,53.81,110.14L53.81,110.14z"/>
	</g>
	<g>
		<g>
			<path d="M82.04,40.56c0.55-0.24-0.28,0.1-0.38,0.14c-0.2,0.07-0.4,0.14-0.6,0.21c-0.47,0.16-0.95,0.3-1.43,0.43
				c-0.42,0.11-0.84,0.21-1.26,0.29c-0.28,0.06-0.57,0.11-0.85,0.16c-0.13,0.02-0.77,0.1-0.19,0.03c-0.94,0.11-1.88,0.18-2.83,0.18
				c-0.51,0-1.02-0.01-1.53-0.04c-0.22-0.01-0.44-0.03-0.65-0.05c-0.11-0.01-1.03-0.12-0.42-0.04c-0.7-0.09-1.29-0.12-1.93,0.25
				c-0.52,0.3-1.01,0.9-1.15,1.49c-0.27,1.17,0.36,2.89,1.75,3.08c4.82,0.65,9.51,0.09,13.99-1.82c1.21-0.51,1.56-2.38,0.9-3.42
				C84.65,40.2,83.33,40.01,82.04,40.56L82.04,40.56z"/>
		</g>
		<g>
			<path d="M77.22,33.25c-0.61,0.18-1.21,0.36-1.83,0.5c-0.23,0.05-0.47,0.1-0.7,0.14c-0.16,0.03-0.31,0.05-0.47,0.08
				c0.27-0.04,0.26-0.04-0.04-0.01c-0.56,0.02-1.1,0.05-1.66,0c0.52,0.05-0.4-0.09-0.5-0.12c-0.27-0.07-0.53-0.15-0.79-0.24
				c-1.05-0.35-2.06-0.77-3.16-0.94c-1.54-0.24-2.94-0.12-4.36,0.56c-1.18,0.57-1.59,2.35-0.9,3.42c0.78,1.21,2.16,1.5,3.42,0.9
				c-0.54,0.26,0.2-0.03,0.36-0.06c-0.6,0.1,0.02,0.03,0.17,0.04c0.14,0,0.28,0.01,0.43,0.03c-0.31-0.04-0.32-0.04-0.03,0.01
				c0.21,0.05,0.41,0.09,0.62,0.15c1.1,0.31,2.14,0.8,3.26,1.04c2.54,0.53,5.08,0.07,7.52-0.67c1.25-0.38,2.17-1.77,1.75-3.08
				C79.89,33.74,78.56,32.84,77.22,33.25L77.22,33.25z"/>
		</g>
		<g>
			<path d="M63.89,37.88c3.22,0,3.22-5,0-5C60.67,32.88,60.67,37.88,63.89,37.88L63.89,37.88z"/>
		</g>
		<g>
			<path d="M68.07,35.17c0.89-0.46,1.82-0.89,2.69-1.39c0.66-0.38,1.27-0.91,1.67-1.57c0.66-1.1,0.56-2.43-0.21-3.43
				c-1.01-1.3-2.77-1.44-4.29-1.52c-1.22-0.06-2.45,0.07-3.64,0.29c-0.75,0.14-1.34,0.78-1.62,1.45c-0.3,0.72-0.29,1.54,0.13,2.22
				c0.69,1.14,1.44,2.24,2.25,3.3c0.16,0.29,0.37,0.53,0.64,0.7c0.24,0.22,0.52,0.37,0.85,0.45c0.6,0.16,1.4,0.09,1.93-0.25
				c0.53-0.34,1-0.86,1.15-1.49c0.14-0.61,0.15-1.4-0.25-1.93c-0.81-1.06-1.56-2.16-2.25-3.3c-0.5,1.22-1,2.45-1.49,3.67
				c0.23-0.04,0.46-0.08,0.7-0.11c-0.22,0.03-0.44,0.06-0.66,0.09c1.11-0.14,2.23-0.14,3.35,0.01c-0.22-0.03-0.44-0.06-0.66-0.09
				c0.32,0.05,0.65,0.09,0.96,0.21c-0.2-0.08-0.4-0.17-0.6-0.25c0.07,0.03,0.13,0.07,0.2,0.12c-0.17-0.13-0.34-0.26-0.51-0.39
				c0.04,0.03,0.07,0.06,0.11,0.1c-0.13-0.17-0.26-0.34-0.39-0.51c0.03,0.04,0.05,0.08,0.07,0.12c-0.08-0.2-0.17-0.4-0.25-0.6
				c0.02,0.04,0.03,0.08,0.04,0.12c-0.03-0.22-0.06-0.44-0.09-0.66c0.01,0.06,0.01,0.12,0,0.18c0.03-0.22,0.06-0.44,0.09-0.66
				c-0.01,0.04-0.02,0.08-0.04,0.12c0.08-0.2,0.17-0.4,0.25-0.6c-0.04,0.09-0.09,0.16-0.14,0.24c0.13-0.17,0.26-0.34,0.39-0.51
				c-0.1,0.12-0.22,0.23-0.34,0.33c0.17-0.13,0.34-0.26,0.51-0.39c-0.44,0.33-0.96,0.55-1.44,0.8c-0.53,0.27-1.06,0.55-1.59,0.82
				c-0.54,0.28-0.99,0.92-1.15,1.49c-0.16,0.6-0.09,1.4,0.25,1.93C65.41,35.46,66.82,35.82,68.07,35.17L68.07,35.17z"/>
		</g>
		<g>
			<path d="M66.87,25.1c0.21,0.06,0.42,0.08,0.63,0.11c0.21,0.03,0.41,0.06,0.62,0.07c0.11,0,0.21,0,0.32-0.01
				c0.31-0.03,0.64-0.07,0.95-0.14c0.39-0.09,0.78-0.27,1.14-0.44c0.09-0.04,0.17-0.09,0.25-0.15c0.21-0.14,0.41-0.31,0.61-0.47
				c0.04-0.03,0.08-0.07,0.12-0.1c0.24-0.23,0.42-0.49,0.52-0.8c0.16-0.3,0.23-0.62,0.22-0.96c0.01-0.34-0.06-0.67-0.22-0.96
				c-0.1-0.31-0.27-0.58-0.52-0.8c-0.17-0.13-0.34-0.26-0.51-0.39c-0.39-0.23-0.81-0.34-1.26-0.34c-0.22,0.03-0.44,0.06-0.66,0.09
				c-0.42,0.12-0.79,0.33-1.1,0.64c-0.05,0.04-0.09,0.08-0.14,0.12c0.17-0.13,0.34-0.26,0.51-0.39c-0.14,0.1-0.28,0.19-0.44,0.25
				c0.2-0.08,0.4-0.17,0.6-0.25c-0.2,0.09-0.42,0.14-0.64,0.17c0.22-0.03,0.44-0.06,0.66-0.09c-0.22,0.03-0.45,0.03-0.67,0
				c0.22,0.03,0.44,0.06,0.66,0.09c-0.1-0.01-0.2-0.03-0.3-0.06c-0.33-0.1-0.66-0.12-1-0.04c-0.33,0.02-0.64,0.11-0.93,0.3
				c-0.29,0.16-0.53,0.37-0.7,0.64c-0.22,0.24-0.37,0.52-0.45,0.85c-0.03,0.22-0.06,0.44-0.09,0.66c0,0.45,0.12,0.87,0.34,1.26
				c0.13,0.17,0.26,0.34,0.39,0.51C66.08,24.77,66.45,24.98,66.87,25.1L66.87,25.1z"/>
		</g>
		<g>
			<path d="M67.82,24.02c3.22,0,3.22-5,0-5C64.6,19.02,64.59,24.02,67.82,24.02L67.82,24.02z"/>
		</g>
		<g>
			<path d="M82.85,27.24c0.18,0.02,0.36,0.02,0.54,0.01c0.3-0.03,0.61-0.07,0.91-0.12c0.09-0.02,0.18-0.04,0.27-0.07
				c0.08-0.03,0.16-0.06,0.24-0.09c0.27-0.11,0.55-0.21,0.81-0.36c0.07-0.04,0.14-0.08,0.21-0.13c0.24-0.17,0.48-0.35,0.69-0.54
				c0.13-0.17,0.26-0.34,0.39-0.51c0.18-0.29,0.28-0.6,0.3-0.93c0.06-0.22,0.06-0.44,0-0.66c-0.02-0.33-0.11-0.64-0.3-0.93
				c-0.24-0.33-0.48-0.67-0.79-0.94c-0.23-0.2-0.47-0.38-0.72-0.56c-0.09-0.07-0.19-0.13-0.29-0.18c-0.29-0.18-0.6-0.28-0.93-0.3
				c-0.33-0.07-0.66-0.06-1,0.04c-0.33,0.08-0.61,0.23-0.85,0.45c-0.27,0.18-0.49,0.41-0.64,0.7c-0.08,0.2-0.17,0.4-0.25,0.6
				c-0.12,0.44-0.12,0.89,0,1.33c0.08,0.2,0.17,0.4,0.25,0.6c0.22,0.38,0.52,0.67,0.9,0.9c0.12,0.07,0.24,0.15,0.35,0.23
				c-0.17-0.13-0.34-0.26-0.51-0.39c0.18,0.14,0.35,0.3,0.49,0.48c-0.13-0.17-0.26-0.34-0.39-0.51c0.02,0.02,0.04,0.05,0.06,0.07
				c0.13-1.01,0.26-2.02,0.39-3.03c-0.04,0.04-0.08,0.08-0.13,0.11c0.17-0.13,0.34-0.26,0.51-0.39c-0.15,0.11-0.31,0.21-0.48,0.28
				c0.2-0.08,0.4-0.17,0.6-0.25c-0.21,0.09-0.42,0.15-0.65,0.18c0.22-0.03,0.44-0.06,0.66-0.09c-0.22,0.03-0.43,0.03-0.65,0
				c-0.34-0.01-0.67,0.06-0.96,0.22c-0.31,0.1-0.58,0.27-0.8,0.52c-0.24,0.23-0.42,0.49-0.52,0.8c-0.16,0.3-0.23,0.62-0.22,0.96
				c0.03,0.22,0.06,0.44,0.09,0.66c0.12,0.42,0.33,0.79,0.64,1.1c0.17,0.13,0.34,0.26,0.51,0.39C81.98,27.12,82.4,27.24,82.85,27.24
				L82.85,27.24z"/>
		</g>
		<g>
			<path d="M81.24,21.03c-0.27,0.02-0.55,0.05-0.82,0.11c-0.24,0.06-0.59,0.23-0.74,0.3c-0.05,0.02-0.09,0.04-0.13,0.07
				c-0.11,0.07-0.22,0.16-0.31,0.24c-0.09,0.07-0.22,0.16-0.31,0.25c-0.18,0.17-0.36,0.43-0.48,0.6c-0.14,0.2-0.26,0.57-0.32,0.71
				c-0.06,0.14-0.06,0.3-0.08,0.45C78.04,23.85,78,24.03,78,24.16c0,0.24,0.05,0.49,0.09,0.73c0.04,0.24,0.21,0.56,0.28,0.7
				c0.11,0.22,0.29,0.41,0.44,0.59c0.15,0.17,0.5,0.41,0.58,0.46c0.03,0.02,0.06,0.04,0.1,0.06c0.22,0.11,0.45,0.21,0.69,0.29
				c0.04,0.01,0.08,0.02,0.12,0.03c0.25,0.04,0.51,0.09,0.77,0.1c0.04,0,0.08,0,0.12,0c0.61-0.07,0.94-0.1,1.48-0.41
				c0.21-0.12,0.42-0.28,0.59-0.45c0.16-0.16,0.3-0.36,0.42-0.55c0.01-0.02,0.02-0.03,0.03-0.05c0.18-0.29,0.28-0.6,0.3-0.93
				c0.07-0.33,0.06-0.66-0.04-1c-0.08-0.33-0.23-0.61-0.45-0.85c-0.18-0.27-0.41-0.49-0.7-0.64c-0.2-0.08-0.4-0.17-0.6-0.25
				c-0.44-0.12-0.89-0.12-1.33,0c-0.2,0.08-0.4,0.17-0.6,0.25c-0.38,0.22-0.67,0.52-0.9,0.9c-0.01,0.02-0.02,0.04-0.04,0.07
				c0.13-0.17,0.26-0.34,0.39-0.51c-0.02,0.02-0.04,0.04-0.06,0.06c0.17-0.13,0.34-0.26,0.51-0.39c-0.03,0.02-0.07,0.04-0.1,0.06
				c0.2-0.08,0.4-0.17,0.6-0.25c-0.05,0.02-0.1,0.03-0.15,0.04c0.22-0.03,0.44-0.06,0.66-0.09c-0.07,0.01-0.14,0.01-0.21,0
				c0.22,0.03,0.44,0.06,0.66,0.09c-0.07-0.01-0.14-0.03-0.2-0.05c0.2,0.08,0.4,0.17,0.6,0.25c-0.05-0.02-0.09-0.05-0.14-0.08
				c0.17,0.13,0.34,0.26,0.51,0.39c-0.03-0.02-0.06-0.05-0.08-0.08c0.13,0.17,0.26,0.34,0.39,0.51c-0.02-0.02-0.03-0.05-0.04-0.08
				c0.08,0.2,0.17,0.4,0.25,0.6c-0.01-0.04-0.02-0.07-0.03-0.11c0.03,0.22,0.06,0.44,0.09,0.66c0-0.04,0-0.07,0-0.11
				c-0.03,0.22-0.06,0.44-0.09,0.66c0.01-0.04,0.02-0.08,0.03-0.12c-0.08,0.2-0.17,0.4-0.25,0.6c0.02-0.04,0.04-0.09,0.07-0.12
				c-0.13,0.17-0.26,0.34-0.39,0.51c0.04-0.05,0.09-0.1,0.14-0.14c-0.17,0.13-0.34,0.26-0.51,0.39c0.06-0.04,0.12-0.08,0.19-0.11
				c-0.2,0.08-0.4,0.17-0.6,0.25c0.08-0.03,0.15-0.05,0.23-0.07c-0.22,0.03-0.44,0.06-0.66,0.09c0.02,0,0.04,0,0.06-0.01
				c0.34,0.01,0.67-0.06,0.96-0.22c0.31-0.1,0.58-0.27,0.8-0.52c0.24-0.23,0.42-0.49,0.52-0.8c0.16-0.3,0.23-0.62,0.22-0.96
				c-0.03-0.22-0.06-0.44-0.09-0.66c-0.12-0.42-0.33-0.79-0.64-1.1c-0.17-0.13-0.34-0.26-0.51-0.39
				C82.11,21.14,81.69,21.03,81.24,21.03L81.24,21.03z"/>
		</g>
	</g>
	<g>
		<path d="M101.42,20.12c1.51-2.42,1.94-5.37,1.59-8.16c-0.19-1.51-0.52-2.96-0.99-4.41c-0.41-1.26-0.8-2.63-1.47-3.77
			c-0.79-1.35-2.11-2.4-3.73-2.42c-1.68-0.03-2.96,1.02-4.15,2.07c-2.09,1.85-3.89,4.03-5.39,6.38c-0.7,1.1-0.27,2.81,0.9,3.42
			c1.24,0.65,2.67,0.28,3.42-0.9c0.28-0.44,0.56-0.86,0.86-1.29c0.15-0.21,0.3-0.42,0.46-0.62c-0.21,0.27,0.27-0.34,0.33-0.4
			c0.66-0.8,1.36-1.55,2.1-2.27c0.4-0.39,0.83-0.75,1.24-1.13c0.07-0.06,0.13-0.11,0.2-0.17c-0.21,0.15-0.2,0.14,0.04-0.03
			c0.06-0.04,0.13-0.08,0.19-0.12c-0.26,0.08-0.26,0.08,0.02,0c-0.31,0.02-0.49,0-0.8-0.08c-0.07-0.06-0.14-0.12-0.22-0.18
			c0.19,0.2,0.18,0.17-0.02-0.08c0.12,0.16,0.22,0.33,0.31,0.51c0.07,0.13,0.28,0.68,0.07,0.13c0.37,1.01,0.74,2.02,1.04,3.06
			c0.16,0.53,0.3,1.06,0.41,1.6c0.06,0.27,0.11,0.54,0.16,0.81c0.1,0.51,0.02-0.05,0.06,0.43c0.04,0.49,0.07,0.98,0.06,1.47
			c0,0.25-0.03,0.49-0.04,0.74c-0.02,0.58,0.07-0.21-0.04,0.31c-0.11,0.52-0.23,1.03-0.4,1.53c-0.06,0.16-0.05,0.15,0.03-0.03
			c-0.05,0.11-0.1,0.22-0.16,0.33c-0.13,0.26-0.27,0.5-0.42,0.74c-0.7,1.11-0.27,2.8,0.9,3.42C99.23,21.67,100.68,21.3,101.42,20.12
			L101.42,20.12z"/>
	</g>
	<g>
		<path d="M85.62,8.36c-3.97-0.62-7.96-0.96-11.98-0.92c-1.31,0.01-2.56,1.14-2.5,2.5c0.06,1.34,1.1,2.51,2.5,2.5
			c1.86-0.02,3.71,0.04,5.56,0.17c0.89,0.06,1.78,0.15,2.66,0.24c0.44,0.05,0.88,0.1,1.33,0.16c-0.58-0.08,0.22,0.03,0.33,0.05
			c0.26,0.04,0.51,0.08,0.77,0.12c0.69,0.11,1.3,0.11,1.93-0.25c0.52-0.3,1.01-0.9,1.15-1.49C87.64,10.24,87,8.58,85.62,8.36
			L85.62,8.36z"/>
	</g>
	<g>
		<path d="M74.77,8.43c-1.55-2.81-3.52-5.43-5.78-7.71c-0.92-0.93-2.63-0.99-3.54,0c-0.92,1-0.98,2.54,0,3.54
			c0.92,0.93,1.79,1.92,2.6,2.96c-0.13-0.17-0.26-0.34-0.39-0.51c1.04,1.34,1.97,2.76,2.79,4.25c0.63,1.15,2.3,1.62,3.42,0.9
			C75.03,11.1,75.44,9.66,74.77,8.43L74.77,8.43z"/>
	</g>
	<g>
		<path d="M96.22,17.83c0.94-0.95,1.62-2.12,2.02-3.39c0.41-1.31,0.41-2.65,0.18-3.99c-0.13-0.75-0.79-1.34-1.45-1.62
			c-0.68-0.29-1.59-0.33-2.22,0.13c-0.55,0.39-1.07,0.8-1.49,1.34c-0.26,0.33-0.52,0.65-0.73,1.02c-0.22,0.37-0.38,0.78-0.54,1.18
			c-0.51,1.27-0.53,2.66-0.28,3.98c0.11,0.59,0.65,1.2,1.15,1.49c0.54,0.31,1.33,0.45,1.93,0.25c0.6-0.2,1.19-0.57,1.49-1.15
			c0.33-0.62,0.38-1.23,0.25-1.93c-0.02-0.09-0.03-0.19-0.05-0.29c0.03,0.22,0.06,0.44,0.09,0.66c-0.05-0.38-0.04-0.77,0-1.15
			c-0.03,0.22-0.06,0.44-0.09,0.66c0.06-0.43,0.17-0.85,0.34-1.25c-0.08,0.2-0.17,0.4-0.25,0.6c0.16-0.38,0.37-0.73,0.61-1.06
			c-0.13,0.17-0.26,0.34-0.39,0.51c0.24-0.31,0.5-0.58,0.81-0.82c-0.17,0.13-0.34,0.26-0.51,0.39c0.06-0.04,0.12-0.09,0.17-0.13
			c-1.22-0.5-2.45-1-3.67-1.49c0.01,0.08,0.02,0.15,0.04,0.23c-0.03-0.22-0.06-0.44-0.09-0.66c0.06,0.49,0.06,0.97,0,1.46
			c0.03-0.22,0.06-0.44,0.09-0.66c-0.07,0.51-0.21,1-0.4,1.48c0.08-0.2,0.17-0.4,0.25-0.6c-0.19,0.45-0.44,0.87-0.73,1.26
			c0.13-0.17,0.26-0.34,0.39-0.51c-0.14,0.18-0.29,0.36-0.46,0.52c-0.45,0.46-0.73,1.12-0.73,1.77c0,0.61,0.27,1.35,0.73,1.77
			c0.48,0.44,1.1,0.76,1.77,0.73C95.12,18.53,95.75,18.31,96.22,17.83L96.22,17.83z"/>
	</g>
	<g>
		<path d="M64.35,21.8c0-2.86,2.08-5.5,3.05-8.29c1.04-3,1.04-6.52,1.48-9.43c0.2-1.33-0.33-2.69-1.75-3.08
			c-1.18-0.32-2.88,0.4-3.08,1.75c-0.49,3.29-0.42,6.6-1.58,9.72c-1.09,2.95-3.13,5.88-3.12,9.34
			C59.35,25.02,64.35,25.03,64.35,21.8L64.35,21.8z"/>
	</g>
	<g>
		<path d="M57.34,48.54c0.03-0.29,0.06-0.59,0.1-0.88c0.01-0.11,0.13-1.04,0.05-0.43c0.08-0.57,0.17-1.15,0.27-1.72
			c0.19-1.09,0.44-2.17,0.75-3.23c0.15-0.51,0.32-1.01,0.51-1.51c0.04-0.1,0.39-0.92,0.15-0.39c0.12-0.26,0.23-0.52,0.36-0.77
			c0.52-1.05,1.14-2.04,1.85-2.98c0.79-1.05,0.2-2.84-0.9-3.42c-1.32-0.7-2.57-0.22-3.42,0.9c-3.17,4.18-4.17,9.32-4.72,14.42
			c-0.14,1.3,1.25,2.56,2.5,2.5C56.31,50.97,57.19,49.93,57.34,48.54L57.34,48.54z"/>
	</g>
	<g>
		<g>
			<path d="M110.08,50.77c0.5-2.73,0.28-5.49-0.65-8.11c-0.82-2.31-2.16-4.2-3.46-6.25c-0.5-0.79-1.01-1.61-1.28-2.52
				c-0.33-1.12-0.25-2.34-0.21-3.49c0.09-2.85,0.22-5.68-0.84-8.39c-0.49-1.26-1.68-2.13-3.08-1.75c-1.2,0.33-2.24,1.81-1.75,3.08
				c0.94,2.39,0.72,4.77,0.66,7.28c-0.06,2.51,0.23,4.79,1.42,7.03c0.97,1.84,2.34,3.44,3.28,5.29c0.98,1.93,1.48,4.36,1.09,6.5
				c-0.24,1.33,0.36,2.7,1.75,3.08C108.21,52.85,109.83,52.1,110.08,50.77L110.08,50.77z"/>
		</g>
	</g>
	<g>
		<path d="M103.51,54.32c-1.8,0.94-3.6,1.88-5.4,2.81c-0.26,0.13-0.51,0.27-0.77,0.4c-1.16,0.61-1.6,2.32-0.9,3.42
			c0.76,1.18,2.18,1.54,3.42,0.9c1.8-0.94,3.6-1.88,5.4-2.81c0.26-0.13,0.51-0.27,0.77-0.4c1.16-0.61,1.6-2.32,0.9-3.42
			C106.17,54.04,104.76,53.67,103.51,54.32L103.51,54.32z"/>
	</g>
	<g>
		<path d="M84.13,59.92c-2.97-3.28-6.81-5.69-11.01-7.05c-1.24-0.4-2.78,0.47-3.08,1.75c-0.31,1.37,0.41,2.64,1.75,3.08
			c0.47,0.15,0.93,0.31,1.39,0.5c0.1,0.04,0.2,0.09,0.3,0.12c-0.12-0.04-0.45-0.2-0.15-0.06c0.22,0.1,0.45,0.2,0.67,0.31
			c0.89,0.42,1.74,0.9,2.57,1.44c0.39,0.25,0.77,0.52,1.14,0.79c0.07,0.05,0.45,0.35,0.14,0.1c-0.29-0.23,0.01,0.01,0.07,0.06
			c0.19,0.15,0.38,0.31,0.57,0.47c0.75,0.64,1.45,1.32,2.11,2.05c0.88,0.97,2.65,0.96,3.54,0C85.08,62.41,85.07,60.95,84.13,59.92
			L84.13,59.92z"/>
	</g>
</g>
</svg>
