<?xml version="1.0" encoding="utf-8"?>
<!-- Generator: Adobe Illustrator 27.9.3, SVG Export Plug-In . SVG Version: 9.03 Build 53313)  -->
<svg version="1.1" id="Layer_1" xmlns="http://www.w3.org/2000/svg" xmlns:xlink="http://www.w3.org/1999/xlink" x="0px" y="0px"
	 viewBox="0 0 143.43 188.51" style="enable-background:new 0 0 143.43 188.51;" xml:space="preserve">
<style type="text/css">
	.st0{fill:#FFFFFF;}
</style>
<g>
	<g>
		<path class="st0" d="M14.7,74.15c-0.61-1.48-1.28-2.83-2.25-4.11c-0.38-0.51-0.78-1-1.17-1.5c0.45,0.57-0.04-0.05-0.1-0.15
			c-0.09-0.13-0.17-0.25-0.24-0.39c-0.16-0.31-0.14-0.26,0.04,0.15c0.04-0.02-0.36-1.06-0.07-0.04c-0.06-0.21,0.15-0.84-0.02-0.19
			c0.14-0.54,0.25-0.81,0.45-1.23c0.65-1.33,1.4-2.62,2.19-3.88c2.65-4.25,6.21-7.7,10.71-10.32c0.68-0.4,1.46-0.71,2.11-1.16
			c0.95-0.65-0.57-0.03-0.28-0.02c0.19,0,0.39-0.05,0.58-0.06c1.14-0.11,2.29-0.17,3.43-0.2c2.37-0.06,4.73-0.01,7.1,0.08
			c4.5,0.18,9.01,0.52,13.49,1.07c0.13,0.02,0.25,0.03,0.38,0.05c0.88,0.11-0.49-0.08,0.02,0c0.31,0.05,0.62,0.09,0.93,0.14
			c0.17,0.03,0.35,0.09,0.53,0.1c0.05,0,0.11,0.03,0.16,0.04c-0.52-0.11-0.26-0.11,0.14,0.1c2.92,1.52,5.64,3.47,8.39,5.26
			c1.42,0.92,3.45,0.29,4.28-1.12c0.89-1.52,0.3-3.35-1.12-4.28c-2.64-1.72-5.24-3.54-8.01-5.05c-1.35-0.74-2.47-1.07-3.96-1.27
			c-4.73-0.65-9.5-1.03-14.27-1.25c-2.59-0.12-5.18-0.19-7.77-0.13c-1.16,0.03-2.32,0.08-3.48,0.18c-0.65,0.06-1.36,0.09-1.99,0.24
			c-0.92,0.22-1.78,0.75-2.61,1.2C16.8,49.41,12.2,53.5,8.74,58.7c-0.9,1.36-1.72,2.78-2.48,4.22c-0.85,1.6-1.68,3.34-1.61,5.2
			c0.06,1.67,0.8,3.04,1.8,4.33c0.24,0.31,0.49,0.62,0.74,0.94c0.01,0.02,0.3,0.38,0.11,0.14c-0.18-0.24,0.18,0.25,0.21,0.29
			c0.43,0.63,0.88,1.29,1.17,2c0.64,1.56,2.08,2.67,3.84,2.18C14,77.59,15.34,75.73,14.7,74.15L14.7,74.15z"/>
	</g>
	<g>
		<path class="st0" d="M50.74,72c-0.65,3.19-1.29,6.48-3.25,9.17c0.3-0.41-0.38,0.45-0.35,0.42c-0.23,0.26-0.47,0.51-0.71,0.75
			c-0.46,0.45-0.92,0.84-1.3,1.1c-1.22,0.84-2.34,1.38-3.72,1.74c-1.82,0.49-3.73,0.36-5.16,1.8c-1.31,1.32-1.59,3.27-1.44,5.05
			c0.11,1.33,0.55,2.59,0.7,3.91c-0.08-0.68-0.03,0.3-0.03,0.36c0.02-0.6-0.09,0.34-0.12,0.43c-0.16,0.44-0.69,1.07-1.12,1.53
			c-2.1,2.18-5.12,3.94-6.13,6.96c-0.72,2.13-0.01,4.25,1.43,5.89c2.78,3.18,7.55,4.66,11.43,5.93c2.01,0.66,4.05,1.23,6.06,1.91
			c3.74,1.27,7.4,2.76,11.19,3.89c3.86,1.15,5.51-4.88,1.66-6.03c-5.19-1.55-10.22-3.61-15.4-5.22c-1.81-0.56-3.61-1.15-5.37-1.85
			c-0.25-0.1-0.5-0.2-0.75-0.31c0.66,0.28-0.16-0.07-0.24-0.11c-0.4-0.18-0.79-0.37-1.18-0.56c-0.44-0.22-0.88-0.46-1.3-0.72
			c-0.13-0.08-0.27-0.16-0.4-0.25c-0.15-0.1-0.96-0.72-0.27-0.16c-0.28-0.23-0.54-0.51-0.82-0.74c-0.21-0.17-0.31-0.54,0.08,0.14
			c-0.08-0.13-0.18-0.31-0.27-0.43c-0.36-0.46,0.23,0.7,0.08,0.16c-0.13-0.47,0.03,0.36,0.03,0.38c-0.02-0.28,0.1-0.74-0.07,0.21
			c0.13-0.74-0.31,0.32-0.01-0.05c1.47-1.8,3.81-3.49,5.42-5.46c1.06-1.3,1.93-2.73,2.2-4.41c0.26-1.6-0.03-3.09-0.37-4.65
			c-0.07-0.31-0.15-0.62-0.19-0.94c0.07,0.5,0-0.23-0.01-0.35c0-0.12,0.08-0.88,0.03-0.92c0.43,0.33-0.79,0.99-0.84,1.13
			c0.04-0.12,1.77-0.26,2.08-0.33c0.9-0.19,1.77-0.47,2.62-0.81c3.22-1.3,5.95-3.41,7.97-6.25c2.23-3.14,3.13-6.95,3.88-10.66
			c0.33-1.65-0.48-3.38-2.18-3.84C53.04,69.39,51.08,70.33,50.74,72L50.74,72z"/>
	</g>
	<g>
		<path class="st0" d="M84.44,127.32c1.75,1.69,3.99,2.36,6.07,3.52c0.2,0.11,0.39,0.24,0.58,0.35c0.69,0.38-0.36-0.41,0.15,0.12
			c0.4,0.41-0.03-0.03-0.06-0.12c0.24,0.58-0.12-0.49-0.11-0.58c0.06-0.17,0.11-0.35,0.17-0.52c-0.12,0.23-0.25,0.45-0.41,0.66
			c-0.05,0.06-0.16,0.2-0.21,0.26c-0.46,0.59-0.95,1.15-1.45,1.7c-1.73,1.92-3.5,3.44-5.92,4.07c-2.85,0.74-5.79-0.13-8.52-1
			c-3.2-1.02-6.34-2.02-9.67-2.55c-3.57-0.56-7.17-0.84-10.76-1.17c-5.93-0.55-11.89-1.06-17.76-2.1c-3.39-0.6-6.77-1.37-10.03-2.49
			c-1.39-0.48-2.61-0.9-3.84-1.68c-1.02-0.65-1.91-1.62-2.27-2.63c-0.55-1.59-2.14-2.65-3.84-2.18c-1.55,0.43-2.74,2.24-2.18,3.84
			c2.46,7.08,10.62,9.1,17.19,10.52c6.92,1.5,13.99,2.13,21.03,2.81c3.76,0.36,7.55,0.57,11.27,1.19c3.61,0.6,6.98,1.84,10.48,2.87
			c3.65,1.07,7.62,1.62,11.31,0.39c3.18-1.06,5.84-3.11,8.05-5.59c1.28-1.43,2.8-2.99,3.39-4.85c0.6-1.89-0.05-3.9-1.43-5.26
			c-1.04-1.04-2.4-1.67-3.71-2.28c-0.64-0.3-1.29-0.58-1.91-0.92c-0.25-0.14-0.5-0.3-0.75-0.44c-0.3-0.21-0.31-0.21-0.03,0.01
			c-0.13-0.11-0.26-0.23-0.38-0.35C85.97,120.1,81.54,124.51,84.44,127.32L84.44,127.32z"/>
	</g>
	<g>
		<path class="st0" d="M4.51,71.25C3.55,76.88,0.17,81.81,0,87.61c-0.04,1.5,0.38,2.91,1.14,4.19c0.34,0.58,0.77,1.1,1.18,1.63
			c0.12,0.15,0.24,0.31,0.36,0.46c-0.36-0.47,0.14,0.2,0.2,0.3c0.13,0.21,0.27,0.42,0.37,0.64c0.17,0.37,0-0.51,0.07,0.3
			c0.04,0.43,0.07,0.91,0.04,1.52c-0.06,1.34-0.36,2.66-0.67,3.97c-1.04,4.52-2.41,9.33-0.97,13.93c0.65,2.09,1.74,4.02,2.87,5.88
			c1.49,2.46,2.79,4.89,5.65,5.92c2.45,0.88,5.3,0.6,7.87,0.67c3.57,0.11,7.13-0.15,10.69-0.43c1.68-0.13,3.12-1.34,3.12-3.12
			c0-1.59-1.43-3.26-3.12-3.12c-2.92,0.23-5.85,0.45-8.79,0.45c-2.28,0.01-4.66,0.05-6.94-0.15c0.49,0.04-0.54-0.12-0.73-0.17
			c-0.2-0.05-0.34-0.12-0.56-0.3c-0.03-0.02-0.27-0.44-0.53-0.87c-0.35-0.57-0.71-1.14-1.06-1.71c-0.53-0.87-1.05-1.74-1.53-2.64
			c-0.18-0.35-0.35-0.7-0.53-1.05c-0.4-0.8,0.12,0.35-0.07-0.14c-0.1-0.25-0.19-0.5-0.27-0.75c-0.12-0.37-0.22-0.75-0.31-1.13
			c-0.04-0.17-0.06-0.34-0.1-0.51c0.12,0.64,0.02,0.2,0.01,0.04c-0.06-0.98-0.05-1.94,0.04-2.92c0-0.05,0.07-0.59,0.01-0.18
			c0.03-0.24,0.07-0.48,0.11-0.72c0.1-0.59,0.21-1.18,0.34-1.76c0.28-1.34,0.63-2.66,0.92-3.99c0.6-2.68,1.2-5.65,0.52-8.38
			c-0.26-1.05-0.77-2.05-1.41-2.91c-0.21-0.29-0.44-0.58-0.66-0.86c0.03,0.04-0.54-0.71-0.3-0.38c0.21,0.28-0.16-0.23-0.2-0.29
			c-0.17-0.26-0.35-0.53-0.48-0.81c-0.14-0.32-0.06-0.04-0.05,0c-0.09-0.37,0-0.86,0.03-1.22c0.05-0.55,0.15-1.09,0.28-1.64
			c0.31-1.36,0.77-2.67,1.25-3.97c1.04-2.79,2.21-5.52,2.71-8.47c0.28-1.66-0.44-3.37-2.18-3.84C6.85,68.66,4.79,69.58,4.51,71.25
			L4.51,71.25z"/>
	</g>
	<g>
		<path class="st0" d="M17.35,99.66c0.12,0.87-0.01-0.2-0.02-0.37c-0.02-0.32-0.04-0.64-0.05-0.96c-0.01-0.56,0-1.12,0.04-1.68
			c0.02-0.31,0.03-0.65,0.09-0.95c-0.18,0.87,0.04-0.19,0.08-0.36c0.11-0.59,0.26-1.18,0.43-1.76c0.17-0.56,0.32-1.22,0.6-1.73
			c-0.39,0.7,0.12-0.25,0.18-0.39c0.13-0.26,0.26-0.52,0.39-0.78c0.3-0.56,0.62-1.11,0.97-1.64c0.19-0.29,0.38-0.57,0.58-0.85
			c0.1-0.14,0.2-0.28,0.31-0.42c-0.22,0.29-0.22,0.29,0,0.02c1.02-1.27,1.33-3.19,0-4.42c-1.14-1.04-3.32-1.36-4.42,0
			c-2.07,2.56-3.7,5.37-4.64,8.54c-0.91,3.09-1.01,6.23-0.57,9.4c0.1,0.72,0.84,1.52,1.44,1.87c0.67,0.39,1.66,0.56,2.41,0.32
			C16.95,102.93,17.59,101.4,17.35,99.66L17.35,99.66z"/>
	</g>
	<g>
		<path class="st0" d="M38.98,94.83c0.01,7.35,2.08,14.99,6.72,20.77c1.03,1.28,3.36,1.15,4.42,0c1.25-1.36,1.1-3.05,0-4.42
			c-0.17-0.22-0.19-0.26-0.01-0.01c-0.11-0.15-0.22-0.3-0.32-0.45c-0.21-0.3-0.42-0.61-0.61-0.93c-0.43-0.68-0.81-1.39-1.17-2.12
			c-0.17-0.35-0.33-0.7-0.49-1.05c-0.2-0.45,0.15,0.41-0.02-0.06c-0.07-0.18-0.14-0.36-0.21-0.55c-0.3-0.78-0.56-1.58-0.79-2.38
			c-0.44-1.51-0.76-3.05-1-4.6c-0.04-0.28-0.04-0.35-0.01-0.03c-0.02-0.19-0.05-0.38-0.07-0.57c-0.05-0.42-0.08-0.85-0.11-1.27
			c-0.05-0.78-0.08-1.56-0.08-2.33c0-1.63-1.44-3.2-3.12-3.12C40.41,91.79,38.98,93.08,38.98,94.83L38.98,94.83z"/>
	</g>
	<g>
		<path class="st0" d="M94.64,94.99c0.12,2.04,0.24,4.09,0.36,6.13c0.05,0.83,0.32,1.61,0.92,2.21c0.54,0.54,1.43,0.95,2.21,0.92
			c0.81-0.04,1.65-0.3,2.21-0.92c0.54-0.59,0.96-1.38,0.92-2.21c-0.12-2.04-0.24-4.09-0.36-6.13c-0.05-0.83-0.32-1.61-0.92-2.21
			c-0.54-0.54-1.43-0.95-2.21-0.92c-0.81,0.04-1.65,0.3-2.21,0.92C95.01,93.37,94.59,94.16,94.64,94.99L94.64,94.99z"/>
	</g>
	<g>
		<path class="st0" d="M52.89,88.57c6.54,3.63,13.41,8.05,21.09,8.49c2.13,0.12,4.19-0.61,6.2-1.22c2.12-0.64,4.24-1.29,6.36-1.93
			c2.12-0.64,4.24-1.29,6.36-1.93c0.89-0.27,1.79-0.52,2.53-1.12c1.15-0.93,1.55-2.24,1.48-3.67c-0.22-4.94-0.59-9.89-0.88-14.83
			c-0.1-1.69-1.36-3.12-3.12-3.12c-1.61,0-3.23,1.43-3.12,3.12c0.15,2.59,0.31,5.19,0.46,7.78c0.08,1.3,0.15,2.59,0.23,3.89
			c0.04,0.65,0.08,1.3,0.12,1.94c0.02,0.32,0.04,0.65,0.06,0.97c-0.01,0.69,0.05,0.65,0.19-0.12c0.37-0.37,0.75-0.75,1.12-1.12
			c0.31-0.08,0.35-0.09,0.13-0.02c-0.2,0.07-0.41,0.13-0.61,0.19c-0.47,0.14-0.94,0.29-1.41,0.43c-0.86,0.26-1.73,0.52-2.59,0.79
			c-1.8,0.55-3.61,1.1-5.41,1.64c-2.9,0.88-6.27,2.44-9.19,1.94c-6.1-1.04-11.5-4.56-16.82-7.51
			C52.53,81.22,49.37,86.62,52.89,88.57L52.89,88.57z"/>
	</g>
	<g>
		<path class="st0" d="M63.54,115.37c-3.62,2.97-5.95,7.78-5.45,12.51c0.21,2.03,0.92,3.8,2.53,5.11c1.74,1.42,3.78,2.66,5.87,3.45
			c4.16,1.58,7.81-0.23,10.3-3.63c1.15-1.57,1.94-3.34,2.98-4.97c0.1-0.16,0.21-0.32,0.31-0.48c0.05-0.07,0.39-0.55,0.16-0.24
			c-0.23,0.3,0.11-0.13,0.17-0.19c0.11-0.12,0.23-0.25,0.35-0.37c0.12-0.12,0.24-0.22,0.36-0.33c0.32-0.3-0.43,0.26-0.05,0.05
			c0.14-0.08,0.28-0.17,0.42-0.25c0.11-0.06,0.22-0.12,0.33-0.17c-0.32,0.13-0.37,0.16-0.15,0.08c0.15-0.04,1.28-0.3,0.68-0.21
			c0.55-0.08,1.12-0.07,1.67-0.06c1.37,0.03,2.74,0.11,4.11,0.12c2.91,0.01,5.83-0.12,8.72-0.47c1.68-0.2,3.12-1.29,3.12-3.12
			c0-1.53-1.44-3.33-3.12-3.12c-4.48,0.55-8.88,0.3-13.37,0.35c-3.74,0.04-6.61,1.64-8.73,4.68c-0.97,1.39-1.67,2.94-2.57,4.37
			c-0.2,0.32-0.41,0.63-0.63,0.95c-0.35,0.52-0.15,0.19-0.06,0.09c-0.12,0.15-0.25,0.29-0.38,0.43c-0.1,0.11-0.72,0.7-0.46,0.48
			c0.27-0.23-0.03,0.03-0.09,0.06c-0.22,0.12-0.41,0.25-0.64,0.36c0.74-0.35-0.44,0.06,0.01-0.03c0.37-0.07-0.41-0.01-0.6-0.01
			c0.66,0.02-0.37-0.1-0.58-0.16c-0.51-0.16-0.5-0.17-0.85-0.35c-0.85-0.44-1.65-0.96-2.45-1.48c-0.29-0.18-0.57-0.37-0.85-0.57
			c0.5,0.36-0.12-0.15-0.28-0.3c0.41,0.4,0.21,0.29,0.09,0.09c-0.35-0.59,0.09,0.39-0.01-0.02c-0.04-0.17-0.09-0.35-0.13-0.52
			c-0.09-0.45-0.02,0.7-0.01-0.28c0.01-1.12,0.03-1.75,0.35-2.81c0.56-1.85,1.76-3.32,3.33-4.61c1.31-1.07,1.11-3.31,0-4.42
			C66.66,114.07,64.85,114.29,63.54,115.37L63.54,115.37z"/>
	</g>
	<g>
		<path class="st0" d="M112.63,55.75c5.65,1.02,10.22,4.03,13.92,8.47c1.62,1.95,3.3,4.62,4.3,7.17c1.18,3.01,1.08,6.34,1.38,9.52
			c0.17,1.78,0.35,3.65,0.92,5.36c0.42,1.27,1.05,2.47,1.69,3.64c0.65,1.18,1.3,2.36,1.9,3.57c0.28,0.57,0.11,0.25,0.06,0.12
			c0.11,0.27,0.21,0.55,0.29,0.83c0.02,0.09,0.05,0.18,0.07,0.27c0.07,0.37,0.08,0.35,0.03-0.07c0.02,0.16,0.02,0.31,0.02,0.47
			c0.26-0.78,0.26-0.91-0.01-0.38c-0.57,0.61-0.96,1.61-1.36,2.34c-0.43,0.78-0.84,1.57-1.24,2.37c-0.75,1.48-1.36,3.05-2.2,4.49
			c-0.65,1.13-1.61,1.71-2.82,2.4c-1.74,0.99-3.55,1.85-5.38,2.68c-3.82,1.73-7.62,3.53-11.46,5.22c-3.79,1.67-7.65,3.19-11.47,4.79
			c-1.55,0.65-2.67,2.07-2.18,3.84c0.4,1.47,2.28,2.84,3.84,2.18c3.88-1.63,7.8-3.19,11.66-4.86c3.72-1.61,7.36-3.4,11.07-5.04
			c1.83-0.81,3.65-1.62,5.43-2.54c1.77-0.92,3.74-1.89,5.11-3.37c1.26-1.36,2.02-2.97,2.8-4.63c0.8-1.68,1.64-3.35,2.56-4.97
			c0.93-1.63,2.06-3.14,1.87-5.12c-0.16-1.65-0.77-3.13-1.5-4.61c-0.64-1.31-1.39-2.56-2.07-3.84c-0.14-0.27-0.28-0.55-0.42-0.82
			c-0.04-0.08-0.29-0.63-0.14-0.27c0.14,0.32-0.03-0.07-0.04-0.11c-0.23-0.79-0.44-1.56-0.58-2.37c-0.65-3.74-0.34-7.58-1.34-11.27
			c-0.88-3.26-2.65-6.45-4.63-9.17c-4.46-6.11-10.84-10.94-18.41-12.31c-1.66-0.3-3.37,0.45-3.84,2.18
			C110.03,53.42,110.96,55.45,112.63,55.75L112.63,55.75z"/>
	</g>
	<g>
		<path class="st0" d="M118.08,92.25c-4.6,1.52-8.59,4.13-12.49,6.94c-3.39,2.43-6.47,5.3-9.96,7.59c-1.72,1.13-3.17,1.9-5.04,2.36
			c-2.33,0.57-4.71,0.82-7.09,1c-5.15,0.37-10.34,0.48-15.37,1.77c-3.89,1-2.24,7.03,1.66,6.03c9.32-2.39,19.82-0.05,28.33-5.33
			c7.43-4.61,13.07-11.49,21.62-14.32c1.6-0.53,2.65-2.16,2.18-3.84C121.5,92.87,119.69,91.72,118.08,92.25L118.08,92.25z"/>
	</g>
	<g>
		<path class="st0" d="M103.24,92.04c5.17-2.08,11.38-2.16,14.76-7.28c1.53-2.32,2.21-5.18,2.66-7.89c0.53-3.22,0.91-6.46,1.36-9.69
			c0.23-1.67-0.4-3.36-2.18-3.84c-1.46-0.4-3.61,0.5-3.84,2.18c-0.42,3.03-0.8,6.06-1.26,9.08c-0.18,1.17-0.39,2.33-0.69,3.47
			c-0.17,0.64-0.37,1.26-0.58,1.89c-0.09,0.28-0.2,0.52-0.54,1.12c-0.39,0.69-0.96,1.28-1.53,1.62c-1.23,0.74-1.54,0.83-2.86,1.24
			c-2.31,0.73-4.71,1.15-6.96,2.06c-1.56,0.63-2.67,2.08-2.18,3.84C99.81,91.35,101.67,92.68,103.24,92.04L103.24,92.04z"/>
	</g>
	<g>
		<path class="st0" d="M44.94,136.81c0.76,4.44,2.65,8.71,5.21,12.41c2.38,3.45,5.48,6.18,9.67,7.12c1.59,0.36,3.46-0.48,3.84-2.18
			c0.36-1.59-0.48-3.46-2.18-3.84c-0.47-0.11-0.94-0.23-1.4-0.39c-0.17-0.06-0.35-0.12-0.52-0.19c0.58,0.24,0.01-0.01-0.11-0.07
			c-0.38-0.19-0.75-0.41-1.11-0.65c-0.17-0.11-0.34-0.24-0.51-0.36c0.2,0.14,0.32,0.27,0.06,0.04c-0.58-0.51-1.13-1.05-1.63-1.65
			c-0.08-0.1-0.23-0.23-0.28-0.34c0.25,0.57,0.17,0.24,0.03,0.03c-0.28-0.4-0.57-0.8-0.84-1.21c-0.56-0.85-1.08-1.72-1.57-2.61
			c-0.22-0.41-0.43-0.83-0.64-1.25c-0.11-0.23-0.22-0.47-0.33-0.7c-0.04-0.09-0.08-0.19-0.12-0.28c0.1,0.23,0.1,0.24,0.02,0.04
			c-0.69-1.82-1.25-3.65-1.58-5.57c-0.28-1.62-2.35-2.67-3.84-2.18C45.38,133.53,44.65,135.08,44.94,136.81L44.94,136.81z"/>
	</g>
	<g>
		<path class="st0" d="M83.54,142.36c1.4,3.64,2.81,7.28,4.21,10.91c0.3,0.78,0.69,1.43,1.44,1.87c0.67,0.39,1.66,0.56,2.41,0.32
			c1.48-0.48,2.81-2.21,2.18-3.84c-1.4-3.64-2.81-7.28-4.21-10.91c-0.3-0.78-0.69-1.43-1.44-1.87c-0.67-0.39-1.66-0.56-2.41-0.32
			C84.24,138.99,82.91,140.72,83.54,142.36L83.54,142.36z"/>
	</g>
	<g>
		<path class="st0" d="M100.1,163.7c-0.07,0.55,0.01,0.1,0.08-0.16c0.04-0.15,0.1-0.3,0.14-0.46c0,0.02-0.25,0.52-0.1,0.21
			c0.1-0.2,0.2-0.4,0.32-0.59c0.08-0.13,0.16-0.24,0.24-0.37c0.22-0.34-0.37,0.4-0.08,0.12c0.34-0.33,0.68-0.66,1.02-0.99
			c0.41-0.39-0.41,0.26,0.07-0.05c0.25-0.16,0.49-0.34,0.74-0.51c1.8-1.18,3.8-2.18,5.3-3.78c1.84-1.97,2.71-4.56,2.4-7.24
			c-0.5-4.35-1.5-8.7-2.26-13.01c-0.21-1.2-0.43-2.39-0.64-3.59c-0.15-0.84-0.42-1.97-0.32-2.64c0.08-0.54,0.4-1.12,0.84-1.84
			c0.58-0.94,1.23-1.84,1.82-2.78c0.9-1.43,0.3-3.44-1.12-4.28c-1.5-0.88-3.37-0.31-4.28,1.12c-1.06,1.69-2.27,3.26-2.98,5.14
			c-0.79,2.07-0.49,4.09-0.12,6.21c0.79,4.47,1.59,8.94,2.38,13.41c0.09,0.48,0.17,0.96,0.26,1.44c0.06,0.32,0.11,0.64,0.17,0.96
			c0.1,0.52,0.03,0.12,0.02,0.01c0.03,0.28,0.05,0.56,0.05,0.83c0,0.31-0.16,1.09,0.01,0.41c-0.06,0.25-0.14,0.51-0.2,0.77
			c-0.07,0.33,0.1-0.22,0.12-0.24c-0.07,0.13-0.12,0.26-0.19,0.38c-0.11,0.18-0.23,0.35-0.34,0.53c0.35-0.56,0.07-0.1-0.19,0.16
			c-0.15,0.15-0.31,0.29-0.46,0.43c-0.11,0.1-0.22,0.18-0.33,0.27c0.01-0.01,0.49-0.36,0.2-0.16c-0.46,0.31-0.91,0.62-1.38,0.92
			c-0.86,0.54-1.74,1.04-2.56,1.63c-2.77,1.97-4.43,4.34-4.88,7.75c-0.22,1.68,1.59,3.12,3.12,3.12
			C98.85,166.83,99.88,165.38,100.1,163.7L100.1,163.7z"/>
	</g>
	<g>
		<path class="st0" d="M53.86,151.84c-0.93,4.83-0.25,9.54,1.8,14c0.95,2.06,2.24,3.89,3.61,5.68c1.28,1.67,2.72,3.44,3.2,5.29
			c0.43,1.63,2.23,2.63,3.84,2.18c1.65-0.45,2.62-2.21,2.18-3.84c-1.13-4.27-4.63-7.23-6.71-11c-1.84-3.34-2.58-7.15-1.91-10.64
			c0.32-1.66-0.46-3.37-2.18-3.84C56.18,149.24,54.18,150.18,53.86,151.84L53.86,151.84z"/>
	</g>
	<g>
		<path class="st0" d="M85.88,154.53c-1.26,4.5-2.09,9.12-2.53,13.78c-0.22,2.33-0.33,4.67-0.29,7.02c0.04,2.06,0.03,4.45,0.64,6.43
			c1.12,3.64,4.57,5.34,8.09,5.9c1.84,0.3,3.7,0.44,5.56,0.58c1.79,0.14,3.63,0.56,5.38-0.04c3.5-1.2,3.79-5.42,1.11-7.65
			c-2.26-1.88-5.44-2.93-8.24-3.69c-3.89-1.05-5.55,4.98-1.66,6.03c1.78,0.48,3.49,1.09,5.11,1.96c0.16,0.08,0.69,0.36,0.66,0.35
			c0.04,0.04,0.08,0.08,0.13,0.12c0.46,0.53,0.64,0.04,0.54-1.46c-0.24,0.9-0.03-1.87,0.63-1.6c-0.23-0.1-0.74,0-1-0.02
			c-0.34-0.03-0.68-0.08-1.03-0.12c-1.26-0.13-2.52-0.21-3.78-0.32c-0.36-0.03-0.72-0.07-1.08-0.1c-0.15-0.02-0.3-0.03-0.46-0.05
			c0.06,0.01,0.45,0.07,0.08,0.01c-0.63-0.09-1.25-0.21-1.86-0.36c-0.27-0.07-0.53-0.14-0.8-0.23c-0.24-0.08-0.71-0.33-0.23-0.07
			c-0.22-0.11-0.44-0.26-0.66-0.36c-0.43-0.2,0.25,0.28-0.22-0.18c-0.52-0.51,0.07,0.25-0.17-0.21c-0.26-0.49,0.04,0.41-0.08-0.16
			c-0.02-0.11-0.18-0.75-0.11-0.35c-0.08-0.45-0.1-0.92-0.14-1.37c-0.31-3.56-0.18-7.16,0.19-10.71c0.41-3.88,1.19-7.72,2.25-11.47
			C92.99,152.31,86.96,150.65,85.88,154.53L85.88,154.53z"/>
	</g>
	<g>
		<path class="st0" d="M99.04,155.16c-0.39,4.73-1.55,9.45-3.41,13.83c-1.86,4.38-6.39,9.4-3.22,14.21
			c0.93,1.41,2.76,2.01,4.28,1.12c1.4-0.82,2.05-2.86,1.12-4.28c-0.41-0.62-0.36-0.73-0.04-1.49c0.44-1.06,1.13-2.05,1.66-3.07
			c1.1-2.1,2.06-4.28,2.88-6.51c1.65-4.44,2.59-9.1,2.98-13.82c0.14-1.68-1.54-3.12-3.12-3.12
			C100.36,152.03,99.18,153.47,99.04,155.16L99.04,155.16z"/>
	</g>
	<g>
		<path class="st0" d="M73.63,144.94c0.19,3.94-0.76,7.65-1.53,11.49c-0.85,4.22-1.33,8.49-0.35,12.73
			c0.45,1.95,1.24,3.81,1.64,5.78c0.25,1.28,0.16,2.68-0.51,4.12c-0.12,0.26-0.75,0.98-0.7,1.23c0.07,0.35-0.21,0-0.01-0.01
			c0.01,0,0.56-0.3,0.55-0.27c0,0-3.14-0.3-3.42-0.31c-1.11-0.05-2.23-0.02-3.34,0.09c-0.67,0.07-1.34,0.2-2.01,0.26
			c0.18-0.02,0.12-0.11-0.33,0.03c-0.13,0-0.26,0.01-0.39,0.01c0.03,0.01,0.07,0.01,0.1,0.02c0.2,0.36,0.4,0.72,0.6,1.09
			c0.69,0.54,0.79,1.09,0.31,1.64c0.01,0.11,0.11-0.09,0.29-0.14c0.33-0.08,0.77-0.3,1.13-0.45c1.24-0.5,2.32-1.08,3.35-1.95
			c1.89-1.59,2.94-3.89,3.07-6.34c0.09-1.69-1.5-3.12-3.12-3.12c-1.76,0-3.04,1.43-3.12,3.12c-0.02,0.37-0.21,0.86-0.46,1.16
			c-0.6,0.74-1.23,1.03-2.12,1.39c-2.67,1.06-5.58,2.99-4.79,6.36c0.79,3.38,4.18,3.58,6.98,3.24c1.21-0.15,2.42-0.2,3.63-0.17
			c1.29,0.04,2.59,0.36,3.87,0.31c5.71-0.24,7.33-7.92,6.58-12.43c-0.38-2.31-1.35-4.47-1.83-6.76c-0.42-2-0.32-4.23-0.06-6.17
			c0.73-5.35,2.53-10.5,2.26-15.97c-0.08-1.69-1.38-3.12-3.12-3.12C75.12,141.81,73.54,143.24,73.63,144.94L73.63,144.94z"/>
	</g>
	<g>
		<path class="st0" d="M112.32,101.97c1.13-2.55,1.88-5.22,2.16-8c0.1-0.96,0.1-1.93,0.17-2.89c0.02-0.27,0.06-0.53,0.08-0.8
			c-0.01,0.09-0.12,0.74-0.04,0.32c0.02-0.11,0.04-0.22,0.06-0.33c0.05-0.23,0.15-0.46,0.19-0.69c0.05-0.29-0.31,0.55-0.14,0.33
			c0.07-0.09,0.12-0.22,0.17-0.32c0.84-1.41,0.36-3.49-1.12-4.28c-1.51-0.8-3.38-0.38-4.28,1.12c-1.23,2.07-1.15,4.56-1.3,6.87
			c-0.01,0.22-0.04,0.44-0.05,0.66c-0.03,0.45,0.06-0.33,0.06-0.37c0.02,0.07-0.03,0.22-0.05,0.29c-0.11,0.62-0.24,1.23-0.38,1.84
			c-0.14,0.59-0.29,1.18-0.47,1.76c-0.1,0.31-0.2,0.62-0.31,0.93c-0.05,0.14-0.11,0.28-0.16,0.41c-0.15,0.41,0.31-0.71,0-0.01
			c-0.35,0.79-0.56,1.54-0.32,2.41c0.2,0.72,0.76,1.51,1.44,1.87C109.4,103.81,111.61,103.56,112.32,101.97L112.32,101.97z"/>
	</g>
	<g>
		<path class="st0" d="M51.71,103.23c2.5,0.41,5,0.82,7.5,1.23c0.36,0.06,0.71,0.12,1.07,0.17c0.85,0.14,1.63,0.14,2.41-0.32
			c0.65-0.38,1.27-1.12,1.44-1.87c0.18-0.8,0.14-1.7-0.32-2.41c-0.41-0.64-1.08-1.31-1.87-1.44c-2.5-0.41-5-0.82-7.5-1.23
			c-0.36-0.06-0.71-0.12-1.07-0.17c-0.85-0.14-1.63-0.14-2.41,0.32c-0.65,0.38-1.27,1.12-1.44,1.87c-0.18,0.8-0.14,1.7,0.32,2.41
			C50.26,102.43,50.93,103.1,51.71,103.23L51.71,103.23z"/>
	</g>
	<g>
		<path class="st0" d="M54.43,111.4c3.05-0.14,6.09-0.27,9.14-0.41c0.44-0.02,0.88-0.04,1.32-0.06c1.63-0.07,3.2-1.38,3.12-3.12
			c-0.07-1.63-1.38-3.2-3.12-3.12c-3.05,0.14-6.09,0.27-9.14,0.41c-0.44,0.02-0.88,0.04-1.32,0.06c-1.63,0.07-3.2,1.38-3.12,3.12
			C51.38,109.91,52.68,111.48,54.43,111.4L54.43,111.4z"/>
	</g>
	<g>
		<g>
			<path class="st0" d="M82.35,40.66c0.85-0.36-0.06,0.01-0.23,0.08c-0.2,0.07-0.4,0.14-0.6,0.21c-0.47,0.16-0.95,0.3-1.43,0.43
				c-0.42,0.11-0.84,0.21-1.26,0.29c-0.28,0.06-0.57,0.11-0.85,0.16c-0.22,0.04-0.88,0.04-0.03,0.01c-0.94,0.03-1.88,0.18-2.83,0.18
				c-0.51,0-1.02-0.01-1.53-0.04c-0.22-0.01-0.44-0.03-0.65-0.05c-0.19-0.02-1.2-0.14-0.25-0.01c-0.87-0.12-1.61-0.15-2.41,0.32
				c-0.65,0.38-1.27,1.12-1.44,1.87c-0.18,0.8-0.14,1.7,0.32,2.41c0.41,0.63,1.09,1.33,1.87,1.44c2.4,0.32,4.73,0.43,7.14,0.12
				c2.58-0.33,4.95-0.99,7.34-2c0.67-0.28,1.25-1.2,1.44-1.87c0.21-0.75,0.11-1.74-0.32-2.41c-0.43-0.67-1.07-1.25-1.87-1.44
				C83.88,40.15,83.16,40.31,82.35,40.66L82.35,40.66z"/>
		</g>
		<g>
			<path class="st0" d="M77.68,33.29c-0.61,0.18-1.21,0.36-1.83,0.5c-0.23,0.05-0.47,0.1-0.7,0.14c-0.16,0.03-0.31,0.05-0.47,0.08
				c0.44-0.06,0.48-0.07,0.12-0.03c-0.41,0.01-1.27,0.2-1.66,0c0.44,0.07,0.48,0.07,0.13,0.01c-0.16-0.03-0.31-0.07-0.46-0.1
				c-0.27-0.07-0.53-0.15-0.79-0.24c-1.05-0.35-2.06-0.77-3.16-0.94c-1.71-0.27-3.25-0.13-4.84,0.62c-1.48,0.71-1.98,2.94-1.12,4.28
				c0.98,1.52,2.69,1.88,4.28,1.12c-1.09,0.52,0.24-0.09,0.21,0.01c-0.49,0.06-0.56,0.08-0.21,0.06c0.07,0,0.14,0,0.21,0
				c0.14,0,0.28,0.01,0.43,0.03c-0.48-0.07-0.54-0.08-0.2-0.02c0.2,0.05,0.41,0.09,0.62,0.15c1.1,0.31,2.14,0.8,3.26,1.04
				c2.65,0.56,5.3,0.11,7.85-0.67c1.56-0.48,2.71-2.21,2.18-3.84C81.01,33.89,79.36,32.78,77.68,33.29L77.68,33.29z"/>
		</g>
		<g>
			<path class="st0" d="M64.51,39.14c4.02,0,4.03-6.25,0-6.25C60.49,32.89,60.49,39.14,64.51,39.14L64.51,39.14z"/>
		</g>
		<g>
			<path class="st0" d="M69.01,36.35c0.89-0.46,1.82-0.89,2.69-1.39c0.75-0.43,1.44-1.05,1.89-1.8c0.36-0.6,0.52-1.25,0.53-1.94
				c0.02-0.82-0.31-1.56-0.79-2.19c-1.14-1.48-3.04-1.67-4.78-1.76c-1.28-0.07-2.56,0.08-3.81,0.31c-0.93,0.17-1.67,0.98-2.03,1.81
				c-0.38,0.9-0.36,1.93,0.16,2.78c0.69,1.14,1.44,2.24,2.25,3.3c0.2,0.36,0.46,0.66,0.8,0.88c0.3,0.28,0.66,0.46,1.06,0.56
				c0.75,0.21,1.74,0.11,2.41-0.32c0.67-0.43,1.25-1.07,1.44-1.87c0.17-0.76,0.18-1.76-0.32-2.41c-0.81-1.06-1.56-2.16-2.25-3.3
				c-0.62,1.53-1.25,3.06-1.87,4.59c0.23-0.04,0.46-0.08,0.7-0.11c-0.28,0.04-0.55,0.07-0.83,0.11c1.11-0.14,2.23-0.14,3.35,0.01
				c-0.28-0.04-0.55-0.07-0.83-0.11c0.32,0.05,0.65,0.09,0.96,0.21c-0.25-0.11-0.5-0.21-0.75-0.32c0.07,0.03,0.13,0.07,0.2,0.12
				c-0.21-0.16-0.42-0.33-0.63-0.49c0.04,0.03,0.07,0.06,0.11,0.1c-0.16-0.21-0.33-0.42-0.49-0.63c0.03,0.04,0.05,0.08,0.07,0.12
				c-0.11-0.25-0.21-0.5-0.32-0.75c0.02,0.04,0.03,0.08,0.04,0.12c-0.04-0.28-0.07-0.55-0.11-0.83c0.01,0.06,0.01,0.12,0,0.18
				c0.04-0.28,0.07-0.55,0.11-0.83c-0.01,0.04-0.02,0.08-0.04,0.12c0.11-0.25,0.21-0.5,0.32-0.75c-0.04,0.09-0.09,0.16-0.14,0.24
				c0.16-0.21,0.33-0.42,0.49-0.63c-0.1,0.12-0.22,0.23-0.34,0.33c0.21-0.16,0.42-0.33,0.63-0.49c-0.44,0.33-0.96,0.55-1.44,0.8
				c-0.53,0.27-1.06,0.55-1.59,0.82c-0.68,0.35-1.24,1.15-1.44,1.87c-0.21,0.75-0.11,1.74,0.32,2.41c0.43,0.67,1.07,1.25,1.87,1.44
				C67.44,36.86,68.23,36.75,69.01,36.35L69.01,36.35z"/>
		</g>
		<g>
			<path class="st0" d="M67.33,26.34c0.23,0.06,0.47,0.08,0.71,0.12c0.23,0.03,0.47,0.07,0.7,0.08c0.11,0,0.21,0,0.32-0.01
				c0.37-0.04,0.75-0.08,1.11-0.16c0.1-0.02,0.19-0.05,0.29-0.08c0.34-0.12,0.68-0.26,1-0.42c0.09-0.04,0.17-0.09,0.25-0.15
				c0.25-0.17,0.49-0.37,0.73-0.56c0.04-0.03,0.08-0.07,0.12-0.1c0.3-0.28,0.52-0.62,0.65-1.01c0.2-0.37,0.29-0.77,0.27-1.2
				c0.02-0.43-0.07-0.83-0.27-1.2c-0.13-0.39-0.34-0.72-0.65-1.01c-0.21-0.16-0.42-0.33-0.63-0.49c-0.49-0.28-1.01-0.42-1.58-0.43
				c-0.28,0.04-0.55,0.07-0.83,0.11c-0.53,0.15-0.99,0.42-1.38,0.8c-0.05,0.04-0.09,0.08-0.14,0.12c0.21-0.16,0.42-0.33,0.63-0.49
				c-0.14,0.1-0.28,0.19-0.44,0.25c0.25-0.11,0.5-0.21,0.75-0.32c-0.2,0.09-0.42,0.14-0.64,0.17c0.28-0.04,0.55-0.07,0.83-0.11
				c-0.22,0.03-0.45,0.03-0.67,0c0.28,0.04,0.55,0.07,0.83,0.11c-0.1-0.01-0.2-0.03-0.3-0.06c-0.42-0.13-0.83-0.15-1.25-0.06
				c-0.42,0.02-0.8,0.14-1.16,0.37c-0.36,0.2-0.66,0.46-0.88,0.8c-0.28,0.3-0.46,0.66-0.56,1.06c-0.04,0.28-0.07,0.55-0.11,0.83
				c0,0.56,0.14,1.09,0.43,1.58c0.16,0.21,0.33,0.42,0.49,0.63C66.34,25.92,66.8,26.19,67.33,26.34L67.33,26.34z"/>
		</g>
		<g>
			<path class="st0" d="M68.44,25.28c4.02,0,4.03-6.25,0-6.25C64.42,19.03,64.41,25.28,68.44,25.28L68.44,25.28z"/>
		</g>
		<g>
			<path class="st0" d="M83.47,28.5c0.18,0.02,0.36,0.02,0.54,0.01c0.31-0.03,0.63-0.08,0.94-0.12c0.05-0.01,0.09-0.01,0.14-0.02
				c0.09-0.02,0.18-0.04,0.27-0.07c0.08-0.03,0.16-0.06,0.24-0.09c0.32-0.13,0.66-0.25,0.96-0.42c0.07-0.04,0.14-0.08,0.21-0.13
				c0.24-0.17,0.48-0.36,0.71-0.55c0.04-0.03,0.07-0.06,0.11-0.09c0.16-0.21,0.33-0.42,0.49-0.63c0.23-0.36,0.35-0.75,0.37-1.16
				c0.07-0.28,0.07-0.55,0-0.83c-0.02-0.42-0.14-0.8-0.37-1.16c-0.27-0.36-0.54-0.76-0.89-1.07c-0.27-0.24-0.56-0.45-0.85-0.66
				c-0.09-0.07-0.19-0.13-0.29-0.18c-0.36-0.23-0.75-0.35-1.16-0.37c-0.42-0.09-0.83-0.07-1.25,0.06c-0.41,0.1-0.76,0.28-1.06,0.56
				c-0.34,0.22-0.61,0.51-0.8,0.88c-0.11,0.25-0.21,0.5-0.32,0.75c-0.15,0.55-0.15,1.11,0,1.66c0.11,0.25,0.21,0.5,0.32,0.75
				c0.28,0.47,0.65,0.84,1.12,1.12c0.12,0.07,0.24,0.15,0.35,0.23c-0.21-0.16-0.42-0.33-0.63-0.49c0.18,0.14,0.35,0.3,0.49,0.48
				c-0.16-0.21-0.33-0.42-0.49-0.63c0.02,0.02,0.04,0.05,0.06,0.07c0.16-1.26,0.33-2.52,0.49-3.79c-0.04,0.04-0.08,0.08-0.13,0.11
				c0.21-0.16,0.42-0.33,0.63-0.49c-0.15,0.11-0.31,0.21-0.48,0.28c0.25-0.11,0.5-0.21,0.75-0.32c-0.21,0.09-0.42,0.15-0.65,0.18
				c0.28-0.04,0.55-0.07,0.83-0.11c-0.22,0.03-0.43,0.03-0.65,0c-0.43-0.02-0.83,0.07-1.2,0.27c-0.39,0.13-0.72,0.34-1.01,0.65
				c-0.3,0.28-0.52,0.62-0.65,1.01c-0.2,0.37-0.29,0.77-0.27,1.2c0.04,0.28,0.07,0.55,0.11,0.83c0.15,0.53,0.42,0.99,0.8,1.38
				c0.21,0.16,0.42,0.33,0.63,0.49C82.38,28.36,82.91,28.5,83.47,28.5L83.47,28.5z"/>
		</g>
		<g>
			<path class="st0" d="M81.86,21.04c-0.33,0.02-0.66,0.06-0.98,0.13c-0.02,0.01-0.05,0.01-0.07,0.02
				c-0.27,0.09-0.66,0.27-0.82,0.34c-0.05,0.02-0.09,0.04-0.13,0.07c-0.13,0.08-0.27,0.2-0.38,0.29c-0.11,0.08-0.26,0.19-0.38,0.3
				c-0.02,0.02-0.04,0.04-0.05,0.06c-0.19,0.22-0.36,0.44-0.52,0.67c-0.17,0.24-0.34,0.75-0.38,0.86c-0.07,0.17-0.07,0.37-0.09,0.54
				C78.05,24.39,78,24.64,78,24.79c0,0.3,0.06,0.6,0.12,0.89c0,0.02,0.01,0.04,0.02,0.06c0.09,0.27,0.2,0.54,0.33,0.79
				c0.13,0.27,0.35,0.49,0.54,0.71c0.18,0.21,0.67,0.54,0.7,0.56c0.03,0.02,0.06,0.04,0.1,0.06c0.27,0.13,0.55,0.26,0.84,0.35
				c0.04,0.01,0.08,0.02,0.12,0.03c0.31,0.05,0.62,0.11,0.94,0.12c0.04,0,0.08,0,0.12,0c0.75-0.08,1.13-0.11,1.79-0.49
				c0.26-0.15,0.51-0.34,0.72-0.55c0.2-0.2,0.37-0.44,0.52-0.67c0.01-0.02,0.02-0.03,0.03-0.05c0.23-0.36,0.35-0.75,0.37-1.16
				c0.09-0.42,0.07-0.83-0.06-1.25c-0.1-0.41-0.28-0.76-0.56-1.06c-0.22-0.34-0.51-0.61-0.88-0.8c-0.25-0.11-0.5-0.21-0.75-0.32
				c-0.55-0.15-1.11-0.15-1.66,0c-0.25,0.11-0.5,0.21-0.75,0.32c-0.47,0.28-0.84,0.65-1.12,1.12c-0.01,0.02-0.02,0.04-0.04,0.07
				c0.16-0.21,0.33-0.42,0.49-0.63c-0.02,0.02-0.04,0.04-0.06,0.06c0.21-0.16,0.42-0.33,0.63-0.49c-0.03,0.02-0.07,0.04-0.1,0.06
				c0.25-0.11,0.5-0.21,0.75-0.32c-0.05,0.02-0.1,0.03-0.15,0.04c0.28-0.04,0.55-0.07,0.83-0.11c-0.07,0.01-0.14,0.01-0.21,0
				c0.28,0.04,0.55,0.07,0.83,0.11c-0.07-0.01-0.14-0.03-0.2-0.05c0.25,0.11,0.5,0.21,0.75,0.32c-0.05-0.02-0.09-0.05-0.14-0.08
				c0.21,0.16,0.42,0.33,0.63,0.49c-0.03-0.02-0.06-0.05-0.08-0.08c0.16,0.21,0.33,0.42,0.49,0.63c-0.02-0.02-0.03-0.05-0.04-0.08
				c0.11,0.25,0.21,0.5,0.32,0.75c-0.01-0.04-0.02-0.07-0.03-0.11c0.04,0.28,0.07,0.55,0.11,0.83c0-0.04,0-0.07,0-0.11
				c-0.04,0.28-0.07,0.55-0.11,0.83c0.01-0.04,0.02-0.08,0.03-0.12c-0.11,0.25-0.21,0.5-0.32,0.75c0.02-0.04,0.04-0.09,0.07-0.12
				c-0.16,0.21-0.33,0.42-0.49,0.63c0.04-0.05,0.09-0.1,0.14-0.14c-0.21,0.16-0.42,0.33-0.63,0.49c0.06-0.04,0.12-0.08,0.19-0.11
				c-0.25,0.11-0.5,0.21-0.75,0.32c0.08-0.03,0.15-0.05,0.23-0.07c-0.28,0.04-0.55,0.07-0.83,0.11c0.02,0,0.04,0,0.06-0.01
				c0.43,0.02,0.83-0.07,1.2-0.27c0.39-0.13,0.72-0.34,1.01-0.65c0.3-0.28,0.52-0.62,0.65-1.01c0.2-0.37,0.29-0.77,0.27-1.2
				c-0.04-0.28-0.07-0.55-0.11-0.83c-0.15-0.53-0.42-0.99-0.8-1.38c-0.21-0.16-0.42-0.33-0.63-0.49
				C82.95,21.18,82.43,21.04,81.86,21.04L81.86,21.04z"/>
		</g>
	</g>
	<g>
		<path class="st0" d="M102.59,21.07c1.57-2.5,2.03-5.58,1.68-8.48c-0.19-1.56-0.53-3.07-1.01-4.57c-0.42-1.31-0.84-2.73-1.53-3.92
			c-0.9-1.54-2.43-2.71-4.27-2.73c-1.86-0.02-3.27,1.08-4.59,2.25c-2.13,1.88-3.96,4.12-5.48,6.51c-0.88,1.38-0.33,3.51,1.12,4.28
			c1.55,0.82,3.34,0.35,4.28-1.12c0.28-0.44,0.56-0.86,0.86-1.29c0.15-0.21,0.3-0.42,0.46-0.62c-0.43,0.58,0.14-0.17,0.23-0.28
			c0.66-0.8,1.36-1.55,2.1-2.27c0.4-0.39,0.83-0.75,1.24-1.13c0.07-0.06,0.13-0.11,0.2-0.17c-0.34,0.25-0.37,0.27-0.09,0.07
			c0.61-0.2-0.61,0.08,0.06-0.06c-0.44,0.09-0.87,0.1-1.28-0.14c-0.11-0.09-0.23-0.18-0.34-0.27c0.22,0.23,0.19,0.16-0.11-0.21
			c-0.02,0.05,0.28,0.45,0.31,0.51c0.03,0.06,0.06,0.12,0.09,0.18c0.14,0.31,0.11,0.24-0.08-0.2c0.05,0.48,0.37,1.02,0.53,1.48
			c0.18,0.52,0.35,1.05,0.51,1.58c0.16,0.53,0.3,1.06,0.41,1.6c0.06,0.27,0.1,0.54,0.16,0.81c0.15,0.73-0.01-0.43,0.04,0.26
			c0.03,0.49,0.07,0.98,0.06,1.47c0,0.25-0.03,0.49-0.04,0.74c-0.02,0.72,0.13-0.51-0.01,0.14c-0.11,0.52-0.27,1.02-0.4,1.53
			c-0.08,0.22-0.05,0.15,0.09-0.18c-0.05,0.11-0.1,0.22-0.16,0.33c-0.13,0.26-0.27,0.5-0.42,0.74c-0.87,1.39-0.34,3.5,1.12,4.28
			C99.85,23,101.66,22.55,102.59,21.07L102.59,21.07z"/>
	</g>
	<g>
		<path class="st0" d="M86.41,8.39c-4.02-0.63-8.07-0.98-12.14-0.94c-1.63,0.01-3.2,1.43-3.12,3.13c0.08,1.68,1.37,3.14,3.12,3.12
			c1.86-0.02,3.71,0.04,5.56,0.17c0.89,0.06,1.78,0.15,2.66,0.24c0.44,0.05,0.89,0.08,1.33,0.16c-0.89-0.17-0.03,0,0.16,0.03
			c0.26,0.04,0.51,0.08,0.77,0.12c0.86,0.13,1.63,0.14,2.41-0.32c0.65-0.38,1.27-1.12,1.44-1.87C88.94,10.74,88.14,8.66,86.41,8.39
			L86.41,8.39z"/>
	</g>
	<g>
		<path class="st0" d="M75.93,8.75c-1.58-2.86-3.58-5.52-5.88-7.84C69.5,0.35,68.64,0,67.85,0c-0.77,0-1.68,0.34-2.21,0.92
			c-1.15,1.25-1.23,3.18,0,4.42c0.92,0.93,1.79,1.92,2.6,2.96c-0.16-0.21-0.33-0.42-0.49-0.63c1.04,1.34,1.97,2.76,2.79,4.25
			c0.37,0.68,1.13,1.23,1.87,1.44c0.75,0.21,1.74,0.11,2.41-0.32C76.26,12.09,76.78,10.28,75.93,8.75L75.93,8.75z"/>
	</g>
	<g>
		<path class="st0" d="M97.29,18.91c1.02-1.03,1.74-2.29,2.18-3.66c0.21-0.68,0.31-1.41,0.36-2.11c0.06-0.74-0.05-1.48-0.18-2.21
			c-0.15-0.53-0.42-0.99-0.8-1.38c-0.28-0.3-0.62-0.52-1.01-0.65c-0.37-0.2-0.77-0.29-1.2-0.27c-0.56,0-1.09,0.14-1.58,0.43
			c-0.6,0.43-1.16,0.86-1.61,1.44c-0.29,0.37-0.59,0.73-0.83,1.14c-0.24,0.42-0.42,0.89-0.6,1.33c-0.27,0.68-0.37,1.39-0.44,2.12
			c-0.08,0.73,0.03,1.47,0.16,2.19c0.1,0.41,0.28,0.76,0.56,1.06c0.22,0.34,0.51,0.61,0.88,0.8c0.67,0.39,1.66,0.56,2.41,0.32
			c0.76-0.24,1.49-0.71,1.87-1.44c0.11-0.25,0.21-0.5,0.32-0.75c0.15-0.55,0.15-1.11,0-1.66c-0.02-0.09-0.03-0.19-0.05-0.29
			c0.04,0.28,0.07,0.55,0.11,0.83c-0.05-0.38-0.04-0.77,0-1.15c-0.04,0.28-0.07,0.55-0.11,0.83c0.06-0.43,0.17-0.85,0.34-1.25
			c-0.11,0.25-0.21,0.5-0.32,0.75c0.16-0.38,0.37-0.73,0.61-1.06c-0.16,0.21-0.33,0.42-0.49,0.63c0.24-0.31,0.5-0.58,0.81-0.82
			c-0.21,0.16-0.42,0.33-0.63,0.49c0.06-0.04,0.12-0.09,0.17-0.13c-1.53-0.62-3.06-1.25-4.59-1.87c0.01,0.08,0.02,0.15,0.04,0.23
			c-0.04-0.28-0.07-0.55-0.11-0.83c0.06,0.49,0.06,0.97,0,1.46c0.04-0.28,0.07-0.55,0.11-0.83c-0.07,0.51-0.21,1-0.4,1.48
			c0.11-0.25,0.21-0.5,0.32-0.75c-0.19,0.45-0.44,0.87-0.73,1.26c0.16-0.21,0.33-0.42,0.49-0.63c-0.14,0.18-0.29,0.36-0.46,0.52
			c-0.57,0.57-0.92,1.4-0.92,2.21c0,0.77,0.34,1.68,0.92,2.21c0.6,0.55,1.38,0.95,2.21,0.92C95.91,19.79,96.7,19.51,97.29,18.91
			L97.29,18.91z"/>
	</g>
	<g>
		<path class="st0" d="M65.6,22.44c0-0.85,0.58-2.67,0.93-3.43c0.72-1.55,1.53-3.07,2.09-4.69c0.57-1.64,0.79-3.37,1-5.08
			c0.1-0.8,0.18-1.6,0.26-2.4c0.04-0.42,0.09-0.84,0.13-1.26c0.02-0.21,0.05-0.41,0.07-0.62c-0.04,0.32-0.04,0.3,0.01-0.08
			c0.24-1.61-0.4-3.44-2.18-3.84c-1.49-0.34-3.59,0.45-3.84,2.18c-0.54,3.65-0.36,6.44-1.58,9.72c-0.05,0.14-0.11,0.28-0.16,0.42
			c0.12-0.29,0.11-0.26-0.04,0.07c-0.17,0.36-0.34,0.72-0.51,1.08c-0.35,0.72-0.7,1.44-1.02,2.17c-0.79,1.84-1.42,3.74-1.42,5.76
			c0,1.63,1.44,3.2,3.12,3.12C64.17,25.49,65.6,24.19,65.6,22.44L65.6,22.44z"/>
	</g>
	<g>
		<path class="st0" d="M58.59,49.17c0.03-0.29,0.06-0.59,0.1-0.88c0.02-0.19,0.09-1.2,0.03-0.26c0.04-0.57,0.17-1.16,0.27-1.72
			c0.19-1.09,0.44-2.17,0.75-3.23c0.15-0.51,0.32-1.01,0.51-1.51c0.05-0.13,0.1-0.26,0.15-0.4c0.13-0.32,0.11-0.26-0.07,0.16
			c0.01-0.22,0.26-0.58,0.36-0.77c0.52-1.05,1.14-2.04,1.85-2.98c0.46-0.6,0.51-1.72,0.32-2.41c-0.2-0.72-0.76-1.51-1.44-1.87
			c-0.73-0.38-1.6-0.58-2.41-0.32c-0.83,0.27-1.35,0.75-1.87,1.44c-3.24,4.27-4.25,9.53-4.8,14.74c-0.17,1.63,1.56,3.2,3.12,3.12
			C57.31,52.22,58.4,50.92,58.59,49.17L58.59,49.17z"/>
	</g>
	<g>
		<g>
			<path class="st0" d="M111.3,51.57c0.52-2.84,0.32-5.71-0.65-8.45c-0.84-2.37-2.2-4.3-3.53-6.4c-0.52-0.82-1-1.64-1.21-2.37
				c-0.23-0.8-0.23-2.15-0.19-3.33c0.09-2.9,0.22-5.8-0.86-8.56c-0.62-1.57-2.09-2.66-3.84-2.18c-1.5,0.41-2.8,2.26-2.18,3.84
				c0.92,2.34,0.7,4.65,0.63,7.12c-0.07,2.62,0.26,5,1.5,7.34c1.94,3.65,5.13,6.81,4.3,11.31c-0.3,1.66,0.46,3.37,2.18,3.84
				C108.98,54.17,111,53.24,111.3,51.57L111.3,51.57z"/>
		</g>
	</g>
	<g>
		<path class="st0" d="M103.82,54.42c-1.8,0.94-3.6,1.88-5.4,2.81c-0.26,0.13-0.51,0.27-0.77,0.4c-0.68,0.35-1.24,1.15-1.44,1.87
			c-0.21,0.75-0.11,1.74,0.32,2.41c0.43,0.67,1.07,1.25,1.87,1.44c0.84,0.19,1.64,0.09,2.41-0.32c1.8-0.94,3.6-1.88,5.4-2.81
			c0.26-0.13,0.51-0.27,0.77-0.4c0.68-0.35,1.24-1.15,1.44-1.87c0.21-0.75,0.11-1.74-0.32-2.41c-0.43-0.67-1.07-1.25-1.87-1.44
			C105.39,53.91,104.6,54.02,103.82,54.42L103.82,54.42z"/>
	</g>
	<g>
		<path class="st0" d="M85.2,60.11c-3.04-3.36-6.99-5.82-11.29-7.21c-1.56-0.51-3.48,0.59-3.84,2.18c-0.39,1.71,0.52,3.3,2.18,3.84
			c0.62,0.2,1.24,0.43,1.84,0.68c-0.25-0.11-0.5-0.21-0.75-0.32c1.81,0.77,3.51,1.76,5.07,2.96c-0.21-0.16-0.42-0.33-0.63-0.49
			c1.08,0.84,2.08,1.76,3,2.77c1.1,1.21,3.32,1.2,4.42,0C86.39,63.23,86.37,61.41,85.2,60.11L85.2,60.11z"/>
	</g>
</g>
</svg>
