<svg fill="none" height="20" viewBox="0 0 49 20" width="49" xmlns="http://www.w3.org/2000/svg"><path d="m47.1902 12.5086c-.7735-.6595-1.4869-1.3866-2.1315-2.1726l3.0332-4.099c.4639-.58385.7234-1.30394.7381-2.04951-.0108-.87346-.3658-1.7074-.9873-2.32122s-1.4597-.958026-2.3332-.95796c-.5085.003135-1.0092.12309-1.4641.35051-.4548.22742-.8517.55627-1.1593.96121l-2.2132 2.9104c-.5279-.64229-1.0204-1.31274-1.4756-2.00848-.3031-.46043-.7177-.83714-1.2049-1.09506-.4871-.25792-1.0314-.38892-1.5826-.38078-.7344.00795-1.4436.26847-2.0085.73779-1.2931-.5525-2.6945-.80473-4.099-.73779-1.7532-.02388-3.494.2966-5.1238.94294-1.0976.4349-2.0315 1.20229-2.671 2.19463s-.9525 2.1598-.8952 3.33897c.0072 1.52092.1028 3.04005.2867 4.54985h-1.4345c0-1.0657 0-2.2953 0-3.48407 0-1.88555 0-3.81217 0-5.20585 0-.4341-.0864-.86388-.2537-1.26443-.1674-.40055-.4122-.76375-.721-1.06879-.3089-.30505-.6752-.54591-1.0778-.708275-.4026-.162366-.8334-.243103-1.2675-.237676-.4359-.003979-.8681.081257-1.2699.250435-.4018.169176-.765.418686-1.0668.733296-2.0065-.733358-4.137-1.067503-6.27164-.983731-5.69766 0-7.706204 2.828441-7.706204 5.492811.054412 1.4431.462784 2.85072 1.188884 4.09908.86804 1.6638 1.4892 3.4449 1.84436 5.2876.14338.7415.54149 1.4096 1.12533 1.8887.58384.479 1.31682.7389 2.07203.7348.43407.0054.86484-.0756 1.26744-.238.4026-.1623.76894-.4029 1.0778-.708.30886-.305.55418-.6685.7215-1.069.1674-.4006.2538-.8304.2537-1.2645.0445-.6961.0445-1.3941 0-2.0903h.615.8606c.6965-.0029 1.3728-.2333 1.9264-.656v1.8036c-.0168.6936.1076 1.3836.3653 2.0278s.6432 1.2291 1.1338 1.7198c.4907.4906 1.0761.8766 1.7203 1.1343s1.3339.3819 2.0275.365c1.6936-.0194 3.3815-.1978 5.0417-.5329.5099.3412 1.1084.5264 1.7218.5329h3.7708 3.3615c.5445-.01 1.0787-.1507 1.5576-.41.5476.4045 1.205.6333 1.8854.6559.5139-.0059 1.0201-.127 1.4811-.354.4611-.2269.8653-.5541 1.1834-.9577l1.8854-2.5824c.8887 1.0269 1.9414 1.8996 3.1153 2.5824.4573.1865.9417.2973 1.4346.328.8735.0001 1.7122-.3441 2.3337-.9579.6215-.6139.9759-1.4481.9867-2.3215-.011-.5504-.1642-1.0887-.4443-1.5627-.2801-.4739-.6775-.8674-1.1544-1.1426zm-12.912.5329c.3195-.3088.5747-.6779.7505-1.086.1759-.4081.2691-.8471.2743-1.2915-.0163-.84399-.3533-1.65008-.9427-2.25439l.3277-.2049c.5329.73782 1.148 1.55749 1.8449 2.41829-.6149.8198-1.2711 1.6807-1.927 2.6234z" fill="#000"/></svg>